<svg xmlns="www.w3.org/2000/svg" xmlns:xlink="www.w3.org/1999/xlink" version="1.1" id="a" x="0px" y="0px" viewBox="0 0 30 30" style="enable-background:new 0 0 30 30;" xml:space="preserve"> <style type="text/css"> .st0{fill:#FFFFFF;} </style> <path class="st0" d="M2.7,23.4c-0.3,0-0.6-0.1-0.8-0.4c-0.2-0.3-0.3-0.7-0.1-1c0.9-1.8,1.5-3.4,1.5-4.5c-1.1-1.4-1.7-3.2-1.7-5 c0-5.2,4.9-9.4,11-9.4s11,4.2,11,9.4c0,2.6-1.3,5.1-3.5,6.9c-2.8,2.2-6.6,2.9-10.6,2.1c-1.8,0.9-4.9,1.7-6.6,2 C2.8,23.4,2.8,23.4,2.7,23.4L2.7,23.4z M12.7,5c-5,0-9,3.3-9,7.4c0,1.5,0.5,2.9,1.5,4.1c0.1,0.2,0.2,0.4,0.2,0.6 c0,1.2-0.4,2.7-0.9,3.9c1.7-0.4,3.5-1,4.4-1.6c0.2-0.1,0.5-0.2,0.8-0.1c3.5,0.9,6.9,0.3,9.3-1.6c1.8-1.4,2.8-3.3,2.8-5.3 C21.7,8.3,17.6,5,12.7,5L12.7,5z"></path> <path class="st0" d="M26.5,26.7c-0.1,0-0.2,0-0.3-0.1L24.4,26c-0.8-0.3-1.1-0.4-1.6-0.7c-2.1,0.4-4.8,0.6-7.2-1 c-0.5-0.3-0.6-0.9-0.3-1.4s0.9-0.6,1.4-0.3c2,1.3,4.2,1.1,6,0.7c0.3-0.1,0.5,0,0.7,0.1c0.5,0.3,0.7,0.4,1.6,0.7 c-0.2-0.8-0.2-1.1-0.2-1.8c0-0.2,0.1-0.4,0.2-0.6c0.8-1,1.2-2.1,1-3.1c-0.1-0.9-0.6-1.8-1.4-2.5c-0.4-0.4-0.5-1-0.1-1.4 s1-0.5,1.4-0.1c1.2,1.1,1.9,2.3,2.1,3.8c0.2,1.4-0.3,2.9-1.2,4.3c0,0.3,0,0.5,0.1,1l0.4,1.8c0.1,0.4,0,0.7-0.3,1 C27,26.6,26.7,26.7,26.5,26.7L26.5,26.7z"></path> <g> <path class="st0" d="M12.1,14.5c-0.1,0-0.1,0-0.2-0.1c-0.1-0.1-0.1-0.1-0.1-0.2c0-0.1,0-0.1,0-0.2c0-0.1,0-0.1,0-0.2 c0-0.4,0.1-0.7,0.3-1s0.4-0.5,0.6-0.8c0.2-0.2,0.4-0.5,0.7-0.7s0.4-0.4,0.6-0.6c0.2-0.2,0.2-0.4,0.3-0.7c0-0.3,0-0.5-0.2-0.7 C14,9.1,13.8,9,13.6,8.9c-0.2-0.1-0.5-0.1-0.7-0.1c-0.4,0-0.8,0.1-1.1,0.3s-0.5,0.6-0.6,1c0,0.1-0.1,0.2-0.1,0.2 c-0.1,0.1-0.2,0.1-0.3,0.1H9.5c-0.1,0-0.2,0-0.2-0.1s-0.1-0.1-0.1-0.2c0-0.4,0.1-0.7,0.3-1.1s0.4-0.7,0.7-0.9 c0.3-0.3,0.7-0.5,1.1-0.7c0.4-0.2,1-0.2,1.5-0.2c0.6,0,1.2,0.1,1.6,0.2c0.4,0.2,0.8,0.4,1,0.6c0.3,0.4,0.5,0.7,0.6,1 s0.2,0.6,0.2,0.9c0,0.4-0.1,0.7-0.2,1s-0.3,0.5-0.5,0.8c-0.2,0.2-0.4,0.5-0.6,0.7c-0.2,0.2-0.4,0.5-0.6,0.7 c-0.2,0.2-0.3,0.5-0.3,0.7c0,0.1,0,0.2,0,0.2c0,0.1,0,0.2,0,0.2c0,0.1-0.1,0.2-0.1,0.3c-0.1,0.1-0.1,0.1-0.2,0.1L12.1,14.5 L12.1,14.5z M12,17.2c-0.1,0-0.2,0-0.2-0.1c-0.1-0.1-0.1-0.1-0.1-0.2v-1.2c0-0.1,0-0.2,0.1-0.3s0.1-0.1,0.2-0.1h1.4 c0.1,0,0.2,0,0.3,0.1s0.1,0.1,0.1,0.3v1.2c0,0.1,0,0.2-0.1,0.2c-0.1,0.1-0.1,0.1-0.3,0.1H12z"></path> </g> </svg>