<svg xmlns="http://www.w3.org/2000/svg" viewBox="0 0 4200 960"><defs><style>.cls-1{fill:#fff;opacity:0;}.cls-2{fill:#333;}.cls-3{fill:#ff7418;}.cls-4{fill:#a51aff;}.cls-5{fill:#ff7417;}</style></defs><g id="Ebene_2" data-name="Ebene 2"><g id="AOW_Space_Full" data-name="AOW Space Full"><rect class="cls-1" width="4200" height="960"></rect></g><g id="AOW_Wordmark" data-name="AOW Wordmark"><path class="cls-2" d="M989.81,634.2q-27-36.93-28.56-89.86l-.52-14.67.52-14.68q1.57-52.92,28.56-89.86t83.58-36.94q57.1,0,88,41.39V305.39A10.82,10.82,0,0,1,1173,293.87h8.91a10.82,10.82,0,0,1,11.53,11.52v349a10.84,10.84,0,0,1-11.53,11.53H1173a10.84,10.84,0,0,1-11.53-11.53V629.75q-30.39,41.4-88,41.4Q1016.8,671.15,989.81,634.2Zm149.08-21q21-27.51,22.53-64.71.52-5.24.53-20.44t-.53-20.43a105.7,105.7,0,0,0-10-42.71,82.55,82.55,0,0,0-28.3-33.27q-18.86-13.1-46.63-13.1-42.45,0-62.1,27T993.22,515l-.52,14.68q0,48.72,18.86,79.91t65,31.17Q1117.93,640.75,1138.89,613.24Z"></path><path class="cls-2" d="M1294.51,638.4q-30.39-32.74-34.58-87.77l-.53-21,.53-21q4.18-54.49,34.32-87.51t80.43-33q54.49,0,85.15,36.15t30.66,99v7.86a10.85,10.85,0,0,1-3.41,8.38,12.24,12.24,0,0,1-8.64,3.15H1291.89V548a116,116,0,0,0,11.27,45.85,86.46,86.46,0,0,0,28.56,34.06q18.33,12.84,43,12.83,28.82,0,46.9-11.26t25.94-22.8q4.71-6.29,7.07-7.86c1.58-1,4.46-1.57,8.65-1.57h8.38a11.88,11.88,0,0,1,7.86,2.62,8.45,8.45,0,0,1,3.15,6.81q0,11-13.89,26.47t-38.51,26.72q-24.64,11.26-55.55,11.27Q1324.9,671.15,1294.51,638.4Zm164-125v-2.09q0-40.35-22.79-66.55t-61-26.2q-38.25,0-60.52,26.2t-22.27,66.55v2.09Z"></path><path class="cls-2" d="M1619.39,652.81,1523,409.67l-1-5.76a10.75,10.75,0,0,1,10.48-10.48h11a10.87,10.87,0,0,1,7.6,2.62,15,15,0,0,1,3.93,5.24l88.55,226.36,88.56-226.36a14.5,14.5,0,0,1,3.93-5.24,10.82,10.82,0,0,1,7.6-2.62h11a10.73,10.73,0,0,1,10.48,10.48l-1,5.76L1667.6,652.81q-5.25,13.1-19.92,13.1h-8.38Q1624.63,665.91,1619.39,652.81Z"></path><path class="cls-2" d="M1818.51,334.21a11.29,11.29,0,0,1-3.15-8.38V305.92a12.27,12.27,0,0,1,3.15-8.65,10.83,10.83,0,0,1,8.38-3.4h19.91a11.63,11.63,0,0,1,12,12.05v19.91a10.83,10.83,0,0,1-3.4,8.38,12.27,12.27,0,0,1-8.65,3.15h-19.91A11.29,11.29,0,0,1,1818.51,334.21Zm5.76,328.55a11.3,11.3,0,0,1-3.14-8.38V405a10.81,10.81,0,0,1,11.52-11.52h8.91A10.81,10.81,0,0,1,1853.09,405V654.38a10.82,10.82,0,0,1-11.53,11.53h-8.91A11.32,11.32,0,0,1,1824.27,662.76Z"></path><path class="cls-2" d="M1951.6,639.44q-29.86-31.7-31.44-88.81l-.53-21,.53-21q1.58-57.12,31.44-88.82t84.36-31.7q34.59,0,58.95,12.31t36.42,31.44q12,19.14,13.1,39.56a9.24,9.24,0,0,1-3.14,8.12,12,12,0,0,1-8.39,3.41h-7.33q-5.25,0-7.6-2.36c-1.57-1.57-3.24-4.45-5-8.64q-10.48-28.81-29.34-41.14T2036,418.58q-37.73,0-60,22.79t-23.84,70l-.52,18.34.52,18.34q1.58,47.16,23.84,70t60,22.79q28.82,0,47.69-12.31T2113,587.31c1.74-4.2,3.41-7.08,5-8.65s4.1-2.36,7.6-2.36h7.33a12,12,0,0,1,8.39,3.41,9.26,9.26,0,0,1,3.14,8.12q-1.07,20.43-13.1,39.56t-36.42,31.44q-24.36,12.31-58.95,12.32Q1981.47,671.15,1951.6,639.44Z"></path><path class="cls-2" d="M2229.32,638.4q-30.41-32.74-34.59-87.77l-.52-21,.52-21q4.18-54.49,34.32-87.51t80.44-33q54.5,0,85.15,36.15t30.65,99v7.86a10.85,10.85,0,0,1-3.41,8.38,12.23,12.23,0,0,1-8.64,3.15H2226.7V548A115.78,115.78,0,0,0,2238,593.86a86.54,86.54,0,0,0,28.56,34.06q18.33,12.84,43,12.83,28.82,0,46.89-11.26t25.94-22.8q4.72-6.29,7.08-7.86c1.57-1,4.45-1.57,8.64-1.57h8.39a11.91,11.91,0,0,1,7.86,2.62,8.47,8.47,0,0,1,3.14,6.81q0,11-13.89,26.47T2365,659.88q-24.63,11.26-55.54,11.27Q2259.69,671.15,2229.32,638.4Zm164-125v-2.09q0-40.35-22.8-66.55t-61-26.2q-38.26,0-60.53,26.2t-22.26,66.55v2.09Z"></path><path class="cls-3" d="M2575.94,662.5a11.68,11.68,0,0,1-3.41-8.65V345.74H2471.92a11.65,11.65,0,0,1-12.05-12.05v-22a12.6,12.6,0,0,1,3.41-8.91,11.27,11.27,0,0,1,8.64-3.66h252.57a11.74,11.74,0,0,1,12.58,12.57v22a11.3,11.3,0,0,1-3.67,8.65,12.63,12.63,0,0,1-8.91,3.4H2624.41V653.85a11.3,11.3,0,0,1-3.67,8.65,12.6,12.6,0,0,1-8.91,3.41h-27.25A11.66,11.66,0,0,1,2575.94,662.5Z"></path><path class="cls-3" d="M2793.92,662.5a11.68,11.68,0,0,1-3.41-8.65V311.68a12.38,12.38,0,0,1,3.41-9.17,11.69,11.69,0,0,1,8.64-3.4h127.86q60.26,0,94.32,28.29t34.06,81.75q0,39.83-19.65,65.5t-55.28,35.63l80.69,139.38a13,13,0,0,1,1.57,5.77,9.66,9.66,0,0,1-3.4,7.33,11,11,0,0,1-7.6,3.15H3030q-7.86,0-12.31-3.67a34.35,34.35,0,0,1-8.13-10.48l-76-133.1h-91.7V653.85a11.33,11.33,0,0,1-3.66,8.65,12.61,12.61,0,0,1-8.91,3.41h-26.73A11.66,11.66,0,0,1,2793.92,662.5Zm134.4-188.38q78.07,0,78.08-65.5t-78.08-65.5h-86.46v131Z"></path><path class="cls-3" d="M3162.29,634.73q-36.95-36.42-36.94-110.3V311.68a12.41,12.41,0,0,1,3.4-9.17,11.71,11.71,0,0,1,8.65-3.4h26.72a11.74,11.74,0,0,1,12.58,12.57V525.47q0,50.31,23.58,75.46t66.55,25.15q43,0,66.54-25.15T3357,525.47V311.68a12.38,12.38,0,0,1,3.41-9.17,11.71,11.71,0,0,1,8.65-3.4h27.24a11.32,11.32,0,0,1,8.65,3.66,12.64,12.64,0,0,1,3.41,8.91V524.43q0,73.88-36.95,110.3t-104.53,36.42Q3199.23,671.15,3162.29,634.73Z"></path><path class="cls-3" d="M3533.27,657.52q-31.71-13.62-48.47-35.89t-17.81-48a10.54,10.54,0,0,1,3.4-7.6,11.13,11.13,0,0,1,8.13-3.4h26.72q9.95,0,13.62,10.48,4.72,22,27,37.73t62.62,15.72q43.49,0,65.5-15.46t22-43.23q0-17.8-10.75-28.82t-31.7-19.39q-21-8.37-62.88-21-40.87-11.52-65-24.63t-36.16-32.49q-12.06-19.38-12.05-48.73,0-28.29,15.46-50.83t44.27-35.37q28.82-12.82,68.65-12.83,40.88,0,70.21,14.41t44.54,36.41q15.2,22,16.25,44a10.57,10.57,0,0,1-2.88,7.34q-2.89,3.13-8.13,3.14h-27.77q-11,0-13.62-10-3.15-22-24.63-36.41t-54-14.41q-35.64,0-56.07,13.62t-20.44,40.35q0,17.82,9.7,29.34t29.6,20.18q19.92,8.64,58.17,19.65,44.54,12.06,70.21,24.89t38.26,32q12.57,19.14,12.57,48.47,0,48.74-37.73,76.5t-101.65,27.78Q3565,671.15,3533.27,657.52Z"></path><path class="cls-3" d="M3890.64,662.5a11.71,11.71,0,0,1-3.4-8.65V345.74H3786.63a11.63,11.63,0,0,1-12.05-12.05v-22a12.63,12.63,0,0,1,3.4-8.91,11.29,11.29,0,0,1,8.65-3.66H4039.2a11.72,11.72,0,0,1,12.57,12.57v22a11.3,11.3,0,0,1-3.67,8.65,12.61,12.61,0,0,1-8.9,3.4H3939.11V653.85a11.3,11.3,0,0,1-3.67,8.65,12.57,12.57,0,0,1-8.9,3.41h-27.25A11.68,11.68,0,0,1,3890.64,662.5Z"></path></g><g id="AOW_Fingerprint" data-name="AOW Fingerprint"><line class="cls-4" x1="470.87" y1="479.86" x2="398.87" y2="479.86"></line><path class="cls-5" d="M470.87,491.86h-72a12,12,0,0,1,0-24h72a12,12,0,0,1,0,24Z"></path><circle class="cls-5" cx="350.87" cy="479.86" r="12"></circle><path class="cls-5" d="M470.87,539.86h-144a12,12,0,0,1,0-24h144a36,36,0,0,0,0-72h-144a12,12,0,0,1,0-24h144a60,60,0,0,1,0,120Z"></path><path class="cls-5" d="M402.92,587.86H314.87a12,12,0,0,1,0-24h88.05a12,12,0,0,1,0,24Z"></path><path class="cls-5" d="M497.86,584a12,12,0,0,1-3.36-23.52,84,84,0,0,0,41.15-134.11,12,12,0,0,1,18.5-15.29,108.18,108.18,0,0,1,24.72,68.76,107.06,107.06,0,0,1-22,65.34,108.74,108.74,0,0,1-55.63,38.33A12,12,0,0,1,497.86,584Z"></path><path class="cls-5" d="M459.11,395.86H362.87a12,12,0,0,1,0-24h96.24a12,12,0,0,1,0,24Z"></path><path class="cls-5" d="M470.87,635.86h-156a12,12,0,0,1,0-24h156c72.78,0,132-59.21,132-132s-59.22-132-132-132h-156a12,12,0,0,1,0-24h156c86,0,156,70,156,156S556.89,635.86,470.87,635.86Z"></path><path class="cls-5" d="M425.62,683.86H314.87a12,12,0,0,1,0-24H425.62a12,12,0,0,1,0,24Z"></path><path class="cls-5" d="M521.86,677a12,12,0,0,1-3.17-23.57A180,180,0,0,0,622.18,577.4a12,12,0,0,1,20.16,13,203.87,203.87,0,0,1-117.29,86.17A12.18,12.18,0,0,1,521.86,677Z"></path><path class="cls-5" d="M662.33,506.58c-.31,0-.62,0-.92,0a12,12,0,0,1-11.06-12.88c.34-4.56.52-9.21.52-13.81a180,180,0,0,0-101-161.78,12,12,0,0,1,10.55-21.56A204,204,0,0,1,674.87,479.86c0,5.21-.2,10.46-.59,15.63A12,12,0,0,1,662.33,506.58Z"></path><path class="cls-5" d="M462.81,299.89h0l-15.94,0h-120a12,12,0,0,1,0-24h120l16,0a12,12,0,0,1,0,24Z"></path><circle class="cls-5" cx="314.87" cy="383.86" r="12"></circle><circle class="cls-5" cx="506.87" cy="390.86" r="12"></circle><circle class="cls-5" cx="450.87" cy="575.86" r="12"></circle><circle class="cls-5" cx="473.87" cy="671.86" r="12"></circle><circle class="cls-5" cx="652.87" cy="540.86" r="12"></circle><circle class="cls-5" cx="509.87" cy="291.86" r="12"></circle><path class="cls-2" d="M176.59,327.86a16,16,0,0,1-16-16v-144a16,16,0,0,1,16-16h144a16,16,0,0,1,0,32h-128v128A16,16,0,0,1,176.59,327.86Z"></path><path class="cls-2" d="M800.59,327.86a16,16,0,0,1-16-16v-128h-128a16,16,0,0,1,0-32h144a16,16,0,0,1,16,16v144A16,16,0,0,1,800.59,327.86Z"></path><path class="cls-2" d="M801.15,808.75h-144a16,16,0,0,1,0-32h128v-128a16,16,0,0,1,32,0v144A16,16,0,0,1,801.15,808.75Z"></path><path class="cls-2" d="M321.15,808.75h-144a16,16,0,0,1-16-16v-144a16,16,0,0,1,32,0v128h128a16,16,0,1,1,0,32Z"></path></g></g></svg>