<svg xmlns="http://www.w3.org/2000/svg" id="a" width="120" height="120" viewBox="0 0 120 120"><defs><style>.b{fill:#ff7417;}</style></defs><path class="b" d="M65.0386,43.1759v-.8241l-2.5614,.1759c-.7253,.0458-1.2699,.2-1.6361,.4602-.3663,.2627-.5494,.6265-.5494,1.0916,0,.453,.1807,.8145,.5446,1.0819,.3614,.2699,.8482,.4024,1.4554,.4024,.388,0,.7518-.0602,1.0867-.1783s.6289-.2843,.8747-.4964c.2458-.2096,.4386-.4602,.5759-.7518,.1398-.2916,.2096-.612,.2096-.9614Zm-5.0386-33.1759c-27.9012,0-50,22.0988-50,50s22.0988,50,50,50,50-22.0964,50-50S87.9036,10,60,10Zm9.706,29.6361c.2361-.6626,.5687-1.2313,1-1.7036s.9494-.8361,1.5566-1.0916,1.2843-.3831,2.0289-.3831c.6723,0,1.2795,.1012,1.8193,.3012,.5422,.2,1.0048,.4699,1.3928,.8096s.6964,.7349,.9229,1.188,.3614,.9325,.4072,1.4361h-2.0072c-.0506-.2771-.1422-.5373-.2723-.7759s-.3012-.4458-.5133-.6217c-.2145-.1759-.4651-.3133-.7518-.412-.2892-.1012-.612-.1494-.9759-.1494-.4265,0-.8145,.0867-1.159,.2578-.347,.1711-.6434,.4145-.8892,.7277s-.4361,.6964-.5711,1.1446c-.1373,.4506-.2048,.9494-.2048,1.4988,0,.5687,.0675,1.0795,.2048,1.5277,.1349,.4506,.3277,.8289,.5783,1.1398,.2482,.3108,.5494,.5494,.8988,.7133s.7349,.2482,1.1542,.2482c.6867,0,1.2458-.1614,1.6795-.4843s.7133-.7952,.8434-1.4169h2.0096c-.0578,.5494-.2096,1.0506-.4554,1.5036s-.5639,.8386-.9542,1.159c-.3928,.3205-.853,.5687-1.3831,.7422s-1.1133,.2627-1.747,.2627c-.7518,0-1.4289-.1253-2.0386-.3735-.6072-.2482-1.1301-.6072-1.5639-1.0723s-.7687-1.0313-1.0048-1.6988-.3542-1.4169-.3542-2.253c-.0048-.8169,.1133-1.559,.3494-2.2241Zm-28.5614-3.041h2.0096v1.7855h.0386c.1229-.2964,.2843-.5639,.4819-.7952,.1976-.2337,.4241-.4313,.6843-.5976,.2578-.1663,.5446-.2916,.853-.3783,.3108-.0867,.6386-.1301,.9807-.1301,.7373,0,1.3614,.1759,1.8675,.5277,.5084,.3518,.8699,.8578,1.0819,1.5181h.0506c.1349-.3181,.3133-.6024,.5325-.853s.4723-.4675,.7566-.6458,.5976-.3133,.9373-.4072,.6964-.1398,1.0723-.1398c.5181,0,.988,.0819,1.412,.2482s.7855,.3976,1.0867,.6988,.5325,.6675,.694,1.0964,.2434,.906,.2434,1.4313v7.1831h-2.0964v-6.6795c0-.6916-.1783-1.2289-.5349-1.6072-.3542-.3783-.8627-.5687-1.5229-.5687-.3229,0-.6193,.0578-.8892,.1711-.2675,.1133-.5012,.2723-.694,.4771-.1952,.2024-.347,.4482-.4554,.7325-.1108,.2843-.1663,.5952-.1663,.9325v6.5422h-2.0675v-6.853c0-.3036-.0482-.5783-.1422-.8241s-.2265-.4554-.4024-.6313c-.1735-.1759-.388-.3084-.6361-.4024-.2506-.094-.5301-.1422-.841-.1422-.3229,0-.6217,.0602-.8988,.1807-.2747,.1205-.5108,.2867-.7084,.4988-.1976,.2145-.3518,.4651-.4602,.7566-.106,.2892-.2795,.6072-.2795,.9494v6.4651h-1.988v-10.5398Zm4.5614,50.4554c-9.2169,0-14.9976-6.4048-14.9976-16.6265s5.7807-16.6482,14.9976-16.6482,14.9759,6.4265,14.9759,16.6482-5.759,16.6265-14.9759,16.6265Zm17.0651-39.9398c-.3398,.0867-.6867,.1301-1.0434,.1301-.5253,0-1.0048-.0747-1.441-.2241-.4386-.1494-.812-.359-1.1253-.6313s-.559-.6-.7325-.9855c-.1759-.3855-.2626-.8145-.2626-1.2867,0-.9253,.3446-1.6482,1.0337-2.1687s1.6867-.8241,2.9952-.9084l2.8434-.1639v-.8145c0-.6072-.1928-1.0723-.5783-1.388s-.9301-.4747-1.6361-.4747c-.2843,0-.5518,.0361-.7976,.106-.2458,.0723-.4626,.1735-.6506,.306s-.3446,.2916-.4651,.4771c-.1229,.1831-.2072,.3904-.253,.6169h-1.9711c.012-.4651,.1277-.8964,.3446-1.2916s.5108-.7373,.8843-1.0289,.8096-.5181,1.3157-.6795,1.0554-.2434,1.6506-.2434c.641,0,1.2217,.0795,1.7422,.2434s.9663,.3928,1.3349,.694,.653,.6626,.853,1.0867,.3012,.8988,.3012,1.4217v7.2313h-2.0072v-1.7566h-.0506c-.1494,.2843-.3373,.5422-.5663,.7711-.2313,.2289-.4892,.4265-.7759,.588-.2892,.1614-.6024,.2867-.9422,.3735Zm13.2602,39.9398c-7.0289,0-11.8072-3.6819-12.1398-9.4627h4.5759c.3566,3.3036,3.5494,5.4916,7.9229,5.4916,4.1952,0,7.2096-2.1879,7.2096-5.1783,0-2.588-1.8313-4.1518-6.0699-5.2217l-4.1301-1.0265c-5.9374-1.4723-8.6361-4.1735-8.6361-8.6145,0-5.4675,4.7759-9.2627,11.5831-9.2627,6.6506,0,11.2916,3.8169,11.4699,9.306h-4.5301c-.3133-3.3036-3.012-5.3349-7.0313-5.3349-3.9952,0-6.7614,2.053-6.7614,5.0217,0,2.3422,1.7398,3.7277,5.9807,4.7976l3.4819,.8699c6.6289,1.6072,9.3518,4.2193,9.3518,8.906-.0024,5.9807-4.7325,9.7084-12.2771,9.7084Zm-30.3253-29.1711c-6.3157,0-10.2651,4.8434-10.2651,12.5422,0,7.6771,3.9494,12.5205,10.2651,12.5205,6.294,0,10.2651-4.8434,10.2651-12.5205,.0024-7.6988-3.9711-12.5422-10.2651-12.5422Z"></path></svg>