<svg xmlns="http://www.w3.org/2000/svg" id="a" width="120" height="120" viewBox="0 0 120 120"><defs><style>.b{fill:#ff7417;}</style></defs><path class="b" d="M27.5343,10V110H92.4657V10H27.5343Zm42.5403,44.2487c3.7634,0,6.8142,3.0508,6.8142,6.8142s-3.0508,6.8142-6.8142,6.8142-6.8141-3.0508-6.8141-6.8142,3.0508-6.8142,6.8141-6.8142Zm-7.7686,.7581c-1.2358,1.5886-1.9571,3.5166-2.0673,5.5262-5.353,.0909-10.3343,2.7551-13.3817,7.1569-1.5526-.9608-3.3419-1.4703-5.1677-1.4716-.1731,0-.3461,.0046-.5191,.0141,4.2882-7.5075,12.5144-11.8766,21.1357-11.2256Zm-27.4241,20.9978c0-3.7634,3.0508-6.8142,6.8141-6.8142s6.8142,3.0508,6.8142,6.8142-3.0508,6.8141-6.8142,6.8141-6.8141-3.0508-6.8141-6.8141Zm21.0104,23.0073c-7.2184-1.5281-13.2047-6.5451-15.9711-13.3853,1.9696,.3616,4.0027,.1117,5.8262-.7161,2.2845,4.4308,6.4398,7.5999,11.317,8.6311,.5497,.1177,1.1103,.2087,1.6715,.2711,.0457,2.0623,.7441,4.0569,1.9951,5.6971-1.6262,.0098-3.2486-.1572-4.8387-.4979Zm12.647,1.3815c-3.7634,0-6.8141-3.0508-6.8141-6.8142s3.0508-6.8141,6.8141-6.8141,6.8142,3.0508,6.8142,6.8141-3.0508,6.8142-6.8142,6.8142Zm9.4823-9.3171c-.5242-1.9938-1.6655-3.7708-3.2607-5.0767,3.1119-5.0427,3.3198-11.3566,.546-16.593,1.7072-1.0677,3.0448-2.6343,3.8319-4.4877,5.3257,8.0426,4.8749,18.5981-1.1172,26.1574Z"></path></svg>