<?xml version="1.0" encoding="utf-8"?>
<!-- Generator: Adobe Illustrator 27.2.0, SVG Export Plug-In . SVG Version: 6.00 Build 0)  -->
<svg version="1.1" id="a" xmlns="http://www.w3.org/2000/svg" xmlns:xlink="http://www.w3.org/1999/xlink" x="0px" y="0px"
	 viewBox="0 0 640 390" style="enable-background:new 0 0 640 390;" xml:space="preserve">
<style type="text/css">
	.st0{fill:#FF7417;}
	.st1{fill:none;stroke:#333333;stroke-width:3.506;stroke-linecap:round;stroke-linejoin:round;}
	.st2{fill:#333333;}
</style>
<g>
	<g id="b">
		<g id="c">
			<path class="st0" d="M72.9,173.4c-1.3,0-2.3-1-2.3-2.3v-21c0-1.3,1-2.3,2.3-2.3h21c1.3,0,2.3,1,2.3,2.3s-1,2.3-2.3,2.3H75.3V171
				C75.3,172.3,74.2,173.4,72.9,173.4L72.9,173.4L72.9,173.4z"/>
			<path class="st0" d="M164,173.4c-1.3,0-2.3-1-2.3-2.3v-18.7H143c-1.3,0-2.3-1-2.3-2.3s1-2.3,2.3-2.3h21c1.3,0,2.3,1,2.3,2.3v21
				C166.4,172.3,165.3,173.4,164,173.4L164,173.4L164,173.4z"/>
			<path class="st0" d="M164.1,243.6h-21c-1.3,0-2.3-1-2.3-2.3s1-2.3,2.3-2.3h18.7v-18.7c0-1.3,1-2.3,2.3-2.3s2.3,1,2.3,2.3v21
				C166.5,242.6,165.4,243.6,164.1,243.6L164.1,243.6z"/>
			<path class="st0" d="M94,243.6H73c-1.3,0-2.3-1-2.3-2.3v-21c0-1.3,1-2.3,2.3-2.3s2.3,1,2.3,2.3v18.7H94c1.3,0,2.3,1,2.3,2.3
				S95.3,243.6,94,243.6z"/>
		</g>
	</g>
	<g>
		<path class="st1" d="M105.4,196.4l-7.9,8c-3.4,3.4-3.4,9,0,12.4s9,3.4,12.4,0l12.4-12.4c3.4-3.4,3.4-9,0-12.4"/>
		<path class="st1" d="M130.9,195.7l8.7-8.8c3.4-3.4,3.4-9,0-12.4s-9-3.4-12.4,0L114.8,187c-3.4,3.4-3.4,9,0,12.4
			c0.4,0.4,0.9,0.8,1.3,1.1"/>
	</g>
</g>
<g>
	<path class="st2" d="M205.7,185.7c-1.8,0-3.3-0.3-4.5-1s-2.2-1.5-3-2.6c-0.8-1.1-1.3-2.3-1.7-3.6c-0.4-1.3-0.6-2.6-0.6-4
		c0-0.5,0-0.9,0-1.3s0-0.8,0-1.3c0.1-1.3,0.3-2.7,0.6-4c0.4-1.3,0.9-2.5,1.7-3.6c0.8-1.1,1.8-1.9,3-2.6s2.7-1,4.5-1
		c1.9,0,3.5,0.4,4.7,1.1c1.2,0.7,2.2,1.6,3,2.6v-10.8c0-0.3,0.1-0.5,0.3-0.7s0.4-0.3,0.7-0.3h0.8c0.3,0,0.5,0.1,0.7,0.3
		c0.2,0.2,0.3,0.4,0.3,0.7v30.4c0,0.3-0.1,0.5-0.3,0.7c-0.2,0.2-0.4,0.3-0.7,0.3h-0.8c-0.3,0-0.5-0.1-0.7-0.3s-0.3-0.4-0.3-0.7v-2.1
		c-0.8,1-1.8,1.9-3,2.6C209.1,185.3,207.6,185.7,205.7,185.7L205.7,185.7z M205.9,183c1.7,0,3.1-0.4,4.2-1.2
		c1.1-0.8,1.9-1.9,2.4-3.1s0.8-2.5,0.8-3.7c0-0.5,0-1.1,0-1.8s0-1.3,0-1.8c0-1.2-0.3-2.4-0.8-3.6c-0.5-1.2-1.3-2.2-2.4-3
		c-1.1-0.8-2.5-1.2-4.2-1.2c-1.8,0-3.2,0.4-4.2,1.2c-1.1,0.8-1.8,1.8-2.3,3.1c-0.5,1.3-0.7,2.7-0.8,4.1c0,0.9,0,1.7,0,2.6
		c0.1,1.5,0.3,2.8,0.8,4.1c0.5,1.3,1.2,2.3,2.3,3.1C202.8,182.6,204.2,183,205.9,183L205.9,183z"/>
	<path class="st2" d="M232.4,185.7c-3,0-5.3-1-7-2.9c-1.7-1.9-2.7-4.5-3-7.6c0-0.5,0-1.1,0-1.8s0-1.4,0-1.8c0.2-2.1,0.6-3.9,1.5-5.5
		s2-2.8,3.4-3.7c1.4-0.9,3.2-1.3,5.1-1.3c2.1,0,3.9,0.5,5.4,1.4c1.5,0.9,2.6,2.3,3.5,4.1c0.8,1.8,1.2,3.9,1.2,6.3v0.7
		c0,0.3-0.1,0.5-0.3,0.7c-0.2,0.2-0.4,0.3-0.8,0.3h-16.3v0.5c0.1,1.4,0.4,2.7,1,3.9c0.6,1.2,1.4,2.2,2.5,3c1.1,0.8,2.3,1.2,3.8,1.2
		c1.3,0,2.4-0.2,3.3-0.6c0.9-0.4,1.6-0.8,2.1-1.3c0.5-0.5,0.9-0.8,1-1.1c0.3-0.4,0.5-0.6,0.6-0.7c0.2-0.1,0.4-0.1,0.7-0.1h0.7
		c0.3,0,0.5,0.1,0.7,0.3c0.2,0.2,0.3,0.4,0.3,0.7c0,0.4-0.3,1-0.7,1.6c-0.4,0.6-1.1,1.2-1.9,1.9s-1.8,1.1-2.9,1.5
		C235.1,185.5,233.8,185.7,232.4,185.7L232.4,185.7z M225.2,171.9h14.5v-0.2c0-1.5-0.3-2.9-0.9-4.1c-0.6-1.2-1.4-2.2-2.5-2.9
		c-1.1-0.7-2.4-1.1-3.9-1.1s-2.8,0.4-3.9,1.1c-1.1,0.7-1.9,1.7-2.5,2.9c-0.6,1.2-0.8,2.6-0.8,4.1L225.2,171.9L225.2,171.9z"/>
	<path class="st2" d="M256,185.2c-0.5,0-0.9-0.1-1.1-0.3c-0.3-0.2-0.5-0.5-0.6-0.8l-8.4-21.2c-0.1-0.2-0.1-0.4-0.1-0.5
		c0-0.2,0.1-0.5,0.3-0.6c0.2-0.2,0.4-0.3,0.6-0.3h1c0.3,0,0.5,0.1,0.7,0.3c0.2,0.2,0.3,0.3,0.3,0.4l7.7,19.8l7.7-19.8
		c0.1-0.1,0.2-0.3,0.3-0.4c0.2-0.2,0.4-0.3,0.7-0.3h1c0.2,0,0.5,0.1,0.6,0.3s0.3,0.4,0.3,0.6c0,0.2,0,0.3-0.1,0.5l-8.4,21.2
		c-0.1,0.3-0.3,0.6-0.6,0.8s-0.7,0.3-1.1,0.3H256L256,185.2z"/>
	<path class="st2" d="M272.8,156.6c-0.3,0-0.5-0.1-0.7-0.3c-0.2-0.2-0.3-0.4-0.3-0.7v-1.7c0-0.3,0.1-0.6,0.3-0.8
		c0.2-0.2,0.4-0.3,0.7-0.3h1.7c0.3,0,0.6,0.1,0.8,0.3c0.2,0.2,0.3,0.4,0.3,0.8v1.7c0,0.3-0.1,0.5-0.3,0.7c-0.2,0.2-0.5,0.3-0.8,0.3
		H272.8z M273.3,185.2c-0.3,0-0.5-0.1-0.7-0.3s-0.3-0.4-0.3-0.7v-21.8c0-0.3,0.1-0.5,0.3-0.7s0.4-0.3,0.7-0.3h0.8
		c0.3,0,0.5,0.1,0.7,0.3s0.3,0.4,0.3,0.7v21.8c0,0.3-0.1,0.5-0.3,0.7s-0.4,0.3-0.7,0.3H273.3z"/>
	<path class="st2" d="M291.5,185.7c-2.1,0-3.9-0.4-5.4-1.3c-1.5-0.8-2.6-2-3.4-3.6c-0.8-1.6-1.2-3.5-1.3-5.6c0-0.5,0-1.1,0-1.8
		s0-1.4,0-1.8c0.1-2.2,0.5-4.1,1.3-5.6c0.8-1.6,1.9-2.8,3.4-3.6c1.5-0.8,3.3-1.3,5.4-1.3c1.6,0,3,0.2,4.2,0.7c1.2,0.4,2.1,1,2.9,1.7
		c0.8,0.7,1.3,1.5,1.7,2.4c0.4,0.9,0.6,1.7,0.6,2.5c0,0.3-0.1,0.5-0.3,0.7c-0.2,0.2-0.5,0.3-0.7,0.3h-0.6c-0.3,0-0.5-0.1-0.7-0.2
		s-0.3-0.4-0.4-0.8c-0.6-1.7-1.5-2.9-2.6-3.6c-1.1-0.7-2.5-1-4.1-1c-2.1,0-3.8,0.6-5.1,1.9c-1.4,1.3-2.1,3.3-2.2,6.2
		c-0.1,1.1-0.1,2.1,0,3.2c0.1,2.9,0.8,4.9,2.2,6.2c1.4,1.3,3.1,1.9,5.1,1.9c1.6,0,3-0.3,4.1-1c1.1-0.7,2-1.9,2.6-3.6
		c0.2-0.4,0.3-0.6,0.4-0.8s0.4-0.2,0.7-0.2h0.6c0.3,0,0.5,0.1,0.7,0.3c0.2,0.2,0.3,0.4,0.3,0.7c0,0.7-0.2,1.3-0.4,2
		c-0.2,0.7-0.6,1.3-1.1,2s-1.1,1.2-1.9,1.7c-0.7,0.5-1.6,0.9-2.6,1.2C293.9,185.5,292.8,185.7,291.5,185.7L291.5,185.7z"/>
	<path class="st2" d="M315.8,185.7c-3,0-5.3-1-7-2.9c-1.7-1.9-2.7-4.5-3-7.6c0-0.5,0-1.1,0-1.8s0-1.4,0-1.8c0.2-2.1,0.6-3.9,1.5-5.5
		s2-2.8,3.4-3.7c1.4-0.9,3.2-1.3,5.1-1.3c2.1,0,3.9,0.5,5.4,1.4c1.5,0.9,2.6,2.3,3.5,4.1c0.8,1.8,1.2,3.9,1.2,6.3v0.7
		c0,0.3-0.1,0.5-0.3,0.7c-0.2,0.2-0.5,0.3-0.8,0.3h-16.3v0.5c0.1,1.4,0.4,2.7,1,3.9c0.6,1.2,1.4,2.2,2.5,3s2.3,1.2,3.8,1.2
		c1.3,0,2.4-0.2,3.3-0.6c0.9-0.4,1.6-0.8,2.1-1.3c0.5-0.5,0.9-0.8,1-1.1c0.3-0.4,0.5-0.6,0.6-0.7c0.2-0.1,0.4-0.1,0.7-0.1h0.7
		c0.3,0,0.5,0.1,0.7,0.3s0.3,0.4,0.3,0.7c0,0.4-0.3,1-0.7,1.6c-0.4,0.6-1.1,1.2-1.9,1.9c-0.8,0.6-1.8,1.1-3,1.5
		C318.5,185.5,317.2,185.7,315.8,185.7L315.8,185.7z M308.6,171.9h14.5v-0.2c0-1.5-0.3-2.9-0.9-4.1c-0.6-1.2-1.4-2.2-2.5-2.9
		c-1.1-0.7-2.4-1.1-3.9-1.1s-2.8,0.4-3.9,1.1s-1.9,1.7-2.5,2.9c-0.6,1.2-0.8,2.6-0.8,4.1L308.6,171.9L308.6,171.9z"/>
	<path class="st0" d="M340.3,185.2c-0.3,0-0.6-0.1-0.8-0.3c-0.2-0.2-0.3-0.4-0.3-0.8v-26.9h-8.8c-0.3,0-0.6-0.1-0.8-0.3
		c-0.2-0.2-0.3-0.4-0.3-0.8v-1.9c0-0.3,0.1-0.6,0.3-0.8c0.2-0.2,0.4-0.3,0.8-0.3h22c0.3,0,0.6,0.1,0.8,0.3c0.2,0.2,0.3,0.5,0.3,0.8
		v1.9c0,0.3-0.1,0.6-0.3,0.8c-0.2,0.2-0.5,0.3-0.8,0.3h-8.7v26.9c0,0.3-0.1,0.6-0.3,0.8c-0.2,0.2-0.5,0.3-0.8,0.3H340.3z"/>
	<path class="st0" d="M359.8,185.2c-0.3,0-0.6-0.1-0.8-0.3c-0.2-0.2-0.3-0.4-0.3-0.8v-29.9c0-0.3,0.1-0.6,0.3-0.8
		c0.2-0.2,0.4-0.3,0.8-0.3h11.2c3.4,0,6.2,0.8,8.2,2.4c2,1.6,3,4,3,7.2c0,2.3-0.6,4.3-1.8,5.7c-1.2,1.5-2.8,2.5-4.8,3.1l7,12.2
		c0.1,0.2,0.1,0.4,0.1,0.5c0,0.2-0.1,0.5-0.3,0.6c-0.2,0.2-0.4,0.3-0.7,0.3h-2.2c-0.5,0-0.9-0.1-1.1-0.4c-0.2-0.3-0.5-0.5-0.6-0.8
		l-6.6-11.6h-8v11.8c0,0.3-0.1,0.6-0.3,0.8c-0.2,0.2-0.5,0.3-0.8,0.3L359.8,185.2L359.8,185.2z M363.2,168.5h7.5
		c2.3,0,4-0.5,5.1-1.4c1.1-1,1.7-2.4,1.7-4.3c0-1.9-0.6-3.3-1.7-4.3c-1.1-1-2.8-1.5-5.1-1.5h-7.5L363.2,168.5L363.2,168.5z"/>
	<path class="st0" d="M400.7,185.7c-2.6,0-4.8-0.5-6.6-1.4c-1.8-0.9-3.3-2.3-4.3-4.2c-1-1.9-1.5-4.3-1.5-7.2v-18.6
		c0-0.3,0.1-0.6,0.3-0.8c0.2-0.2,0.4-0.3,0.8-0.3h2.3c0.3,0,0.6,0.1,0.8,0.3c0.2,0.2,0.3,0.5,0.3,0.8V173c0,3,0.7,5.2,2.1,6.6
		c1.4,1.4,3.3,2.1,5.8,2.1c2.4,0,4.3-0.7,5.7-2.1s2.1-3.6,2.1-6.6v-18.7c0-0.3,0.1-0.6,0.3-0.8s0.4-0.3,0.8-0.3h2.4
		c0.3,0,0.6,0.1,0.8,0.3c0.2,0.2,0.3,0.5,0.3,0.8v18.6c0,3-0.5,5.4-1.5,7.2c-1,1.9-2.4,3.3-4.2,4.2
		C405.5,185.2,403.3,185.7,400.7,185.7L400.7,185.7z"/>
	<path class="st0" d="M431,185.7c-2.7,0-4.9-0.4-6.7-1.2c-1.8-0.8-3.2-1.9-4.1-3.2c-1-1.3-1.5-2.7-1.5-4.1c0-0.2,0.1-0.5,0.3-0.7
		c0.2-0.2,0.4-0.3,0.7-0.3h2.3c0.4,0,0.6,0.1,0.8,0.3c0.2,0.2,0.3,0.4,0.4,0.6c0.2,0.7,0.6,1.5,1.1,2.2c0.6,0.7,1.4,1.3,2.5,1.8
		c1.1,0.5,2.5,0.7,4.2,0.7c2.6,0,4.5-0.5,5.8-1.4c1.2-0.9,1.9-2.2,1.9-3.7c0-1.1-0.3-1.9-1-2.6c-0.7-0.7-1.7-1.2-3-1.8
		c-1.3-0.5-3.1-1.1-5.2-1.7c-2.2-0.6-4.1-1.3-5.5-2.1c-1.5-0.8-2.6-1.7-3.3-2.8c-0.7-1.1-1.1-2.6-1.1-4.3c0-1.6,0.4-3.1,1.3-4.4
		c0.9-1.3,2.2-2.3,3.8-3.1c1.7-0.8,3.7-1.1,6-1.1c1.9,0,3.5,0.3,5,0.8s2.6,1.2,3.5,2c0.9,0.8,1.7,1.7,2.1,2.7c0.5,1,0.7,1.9,0.8,2.8
		c0,0.2-0.1,0.4-0.2,0.6c-0.2,0.2-0.4,0.3-0.7,0.3h-2.4c-0.2,0-0.4-0.1-0.7-0.2c-0.2-0.1-0.4-0.4-0.5-0.7c-0.2-1.2-0.9-2.3-2.1-3.2
		c-1.2-0.9-2.8-1.3-4.8-1.3c-2,0-3.6,0.4-4.8,1.1c-1.2,0.8-1.9,2-1.9,3.6c0,1,0.3,1.9,0.9,2.6c0.6,0.7,1.5,1.3,2.7,1.8
		c1.2,0.5,2.9,1.1,4.9,1.6c2.4,0.7,4.4,1.4,6,2.1c1.6,0.7,2.7,1.7,3.5,2.8c0.7,1.1,1.1,2.5,1.1,4.3c0,1.9-0.5,3.6-1.5,4.9
		c-1,1.4-2.4,2.4-4.2,3.1S433.5,185.7,431,185.7L431,185.7z"/>
	<path class="st0" d="M456.8,185.2c-0.3,0-0.6-0.1-0.8-0.3c-0.2-0.2-0.3-0.4-0.3-0.8v-26.9H447c-0.3,0-0.6-0.1-0.8-0.3
		c-0.2-0.2-0.3-0.4-0.3-0.8v-1.9c0-0.3,0.1-0.6,0.3-0.8c0.2-0.2,0.4-0.3,0.8-0.3h22c0.3,0,0.6,0.1,0.8,0.3c0.2,0.2,0.3,0.5,0.3,0.8
		v1.9c0,0.3-0.1,0.6-0.3,0.8c-0.2,0.2-0.5,0.3-0.8,0.3h-8.7v26.9c0,0.3-0.1,0.6-0.3,0.8c-0.2,0.2-0.5,0.3-0.8,0.3H456.8L456.8,185.2
		z"/>
</g>
<g>
	<path class="st2" d="M209.7,238.7c-2.9,0-5.3-0.5-7.4-1.4c-2.1-0.9-3.7-2.3-4.8-4.2c-1.1-1.8-1.8-4.1-1.9-6.8c0-1.2,0-2.6,0-4
		s0-2.8,0-4.1c0.1-2.7,0.8-4.9,1.9-6.8c1.2-1.9,2.8-3.3,4.8-4.2c2.1-0.9,4.5-1.4,7.4-1.4c2,0,3.9,0.3,5.6,0.8
		c1.7,0.5,3.2,1.2,4.5,2.2c1.3,1,2.3,2.1,3,3.5c0.7,1.4,1.1,2.9,1.1,4.6c0,0.3-0.1,0.5-0.3,0.7c-0.2,0.2-0.4,0.3-0.7,0.3h-6.2
		c-0.4,0-0.7-0.1-0.9-0.3c-0.2-0.2-0.4-0.5-0.5-0.9c-0.4-1.6-1.1-2.7-2.1-3.3c-1-0.6-2.1-0.9-3.5-0.9c-1.7,0-3,0.5-4,1.4
		c-1,0.9-1.5,2.5-1.6,4.6c-0.1,2.5-0.1,5.1,0,7.7c0.1,2.2,0.6,3.7,1.6,4.6c1,0.9,2.3,1.4,4,1.4c1.4,0,2.6-0.3,3.6-0.9
		c1-0.6,1.7-1.7,2.1-3.3c0.1-0.5,0.3-0.8,0.5-0.9c0.2-0.2,0.5-0.3,0.9-0.3h6.2c0.3,0,0.5,0.1,0.7,0.3c0.2,0.2,0.3,0.4,0.3,0.7
		c0,1.7-0.4,3.2-1.1,4.6c-0.7,1.4-1.7,2.5-3,3.5c-1.3,1-2.8,1.7-4.5,2.2C213.6,238.5,211.7,238.7,209.7,238.7L209.7,238.7z"/>
	<path class="st2" d="M229.3,238.3c-0.3,0-0.6-0.1-0.8-0.3s-0.3-0.5-0.3-0.8v-30.2c0-0.3,0.1-0.6,0.3-0.8c0.2-0.2,0.5-0.3,0.8-0.3
		h5.4c0.3,0,0.6,0.1,0.8,0.3c0.2,0.2,0.3,0.5,0.3,0.8v30.2c0,0.3-0.1,0.6-0.3,0.8c-0.2,0.2-0.5,0.3-0.8,0.3H229.3z"/>
	<path class="st2" d="M243.9,211.1c-0.3,0-0.6-0.1-0.8-0.3c-0.2-0.2-0.3-0.5-0.3-0.8v-4.1c0-0.3,0.1-0.6,0.3-0.8
		c0.2-0.2,0.5-0.3,0.8-0.3h5.5c0.3,0,0.6,0.1,0.8,0.3s0.3,0.5,0.3,0.8v4.1c0,0.3-0.1,0.6-0.3,0.8c-0.2,0.2-0.5,0.3-0.8,0.3H243.9z
		 M243.9,238.3c-0.3,0-0.6-0.1-0.8-0.3s-0.3-0.5-0.3-0.8v-21.5c0-0.3,0.1-0.6,0.3-0.8c0.2-0.2,0.5-0.3,0.8-0.3h5.4
		c0.3,0,0.6,0.1,0.8,0.3c0.2,0.2,0.3,0.5,0.3,0.8v21.5c0,0.3-0.1,0.6-0.3,0.8c-0.2,0.2-0.5,0.3-0.8,0.3H243.9z"/>
	<path class="st2" d="M267.1,238.7c-3.6,0-6.5-1-8.6-2.9c-2.1-1.9-3.2-4.8-3.3-8.7v-1.6c0.1-2.4,0.6-4.5,1.6-6.2
		c1-1.7,2.4-3,4.1-3.9c1.8-0.9,3.8-1.3,6.1-1.3c2.7,0,4.9,0.5,6.7,1.6c1.8,1.1,3.1,2.5,4,4.3c0.9,1.8,1.3,3.9,1.3,6.3v1.1
		c0,0.3-0.1,0.6-0.3,0.8s-0.5,0.3-0.8,0.3h-14.6v0.3c0,0.9,0.2,1.7,0.5,2.4c0.3,0.7,0.7,1.3,1.3,1.7c0.6,0.4,1.3,0.6,2.1,0.6
		c0.6,0,1.1-0.1,1.5-0.3c0.4-0.2,0.8-0.4,1-0.7c0.3-0.3,0.5-0.5,0.6-0.7c0.3-0.3,0.5-0.5,0.7-0.6c0.2-0.1,0.4-0.1,0.8-0.1h5.7
		c0.3,0,0.6,0.1,0.8,0.3c0.2,0.2,0.3,0.4,0.3,0.7c0,0.5-0.3,1.1-0.8,1.9c-0.5,0.7-1.2,1.5-2.1,2.2c-0.9,0.7-2.1,1.3-3.5,1.8
		C270.6,238.5,268.9,238.7,267.1,238.7L267.1,238.7z M263.2,223.9h7.7v-0.1c0-1-0.1-1.9-0.4-2.6c-0.3-0.7-0.7-1.3-1.3-1.7
		c-0.6-0.4-1.3-0.6-2.1-0.6c-0.8,0-1.5,0.2-2.1,0.6s-1,1-1.3,1.7C263.3,222,263.2,222.9,263.2,223.9L263.2,223.9L263.2,223.9z"/>
	<path class="st2" d="M284.4,238.3c-0.3,0-0.6-0.1-0.8-0.3s-0.3-0.5-0.3-0.8v-21.5c0-0.3,0.1-0.6,0.3-0.8c0.2-0.2,0.5-0.3,0.8-0.3
		h5.3c0.3,0,0.6,0.1,0.8,0.3c0.2,0.2,0.3,0.5,0.3,0.8v1.7c0.8-0.9,1.8-1.7,3.1-2.4c1.3-0.6,2.8-1,4.5-1c1.8,0,3.3,0.4,4.7,1.2
		c1.4,0.8,2.4,1.9,3.2,3.5s1.2,3.4,1.2,5.7v12.8c0,0.3-0.1,0.6-0.3,0.8s-0.5,0.3-0.8,0.3h-5.8c-0.3,0-0.6-0.1-0.8-0.3
		s-0.3-0.5-0.3-0.8v-12.5c0-1.4-0.3-2.5-1-3.3s-1.7-1.2-3-1.2c-1.2,0-2.2,0.4-3,1.2s-1.1,1.9-1.1,3.3v12.5c0,0.3-0.1,0.6-0.3,0.8
		s-0.5,0.3-0.8,0.3H284.4L284.4,238.3z"/>
	<path class="st2" d="M324.6,238.3c-2,0-3.6-0.3-5.1-0.9c-1.4-0.6-2.5-1.6-3.3-2.9c-0.8-1.3-1.1-3-1.1-5.1v-8.8h-3.6
		c-0.3,0-0.6-0.1-0.8-0.3c-0.2-0.2-0.3-0.5-0.3-0.8v-3.7c0-0.3,0.1-0.6,0.3-0.8c0.2-0.2,0.5-0.3,0.8-0.3h3.6v-7.5
		c0-0.3,0.1-0.6,0.3-0.8s0.5-0.3,0.8-0.3h5.3c0.3,0,0.6,0.1,0.8,0.3c0.2,0.2,0.3,0.5,0.3,0.8v7.5h5.7c0.3,0,0.6,0.1,0.8,0.3
		c0.2,0.2,0.3,0.5,0.3,0.8v3.7c0,0.3-0.1,0.6-0.3,0.8c-0.2,0.2-0.5,0.3-0.8,0.3h-5.7v8.1c0,1,0.2,1.9,0.6,2.5c0.4,0.6,1.1,0.9,2,0.9
		h3.5c0.3,0,0.6,0.1,0.8,0.3c0.2,0.2,0.3,0.5,0.3,0.8v4c0,0.3-0.1,0.6-0.3,0.8c-0.2,0.2-0.5,0.3-0.8,0.3L324.6,238.3L324.6,238.3z"
		/>
	<path class="st2" d="M345.2,238.3c-0.3,0-0.6-0.1-0.8-0.3c-0.2-0.2-0.3-0.5-0.3-0.8v-29.7c0-0.3,0.1-0.6,0.3-0.8s0.5-0.3,0.8-0.3
		h21.4c0.3,0,0.6,0.1,0.8,0.3c0.2,0.2,0.3,0.5,0.3,0.8v4.3c0,0.3-0.1,0.6-0.3,0.8s-0.5,0.3-0.8,0.3h-14.6v6.2h13.6
		c0.3,0,0.6,0.1,0.8,0.3c0.2,0.2,0.3,0.5,0.3,0.8v4c0,0.3-0.1,0.6-0.3,0.8c-0.2,0.2-0.5,0.3-0.8,0.3h-13.6v6.4h15
		c0.3,0,0.6,0.1,0.8,0.3c0.2,0.2,0.3,0.5,0.3,0.8v4.3c0,0.3-0.1,0.6-0.3,0.8c-0.2,0.2-0.5,0.3-0.8,0.3L345.2,238.3L345.2,238.3z"/>
	<path class="st2" d="M371.8,238.3c-0.3,0-0.5-0.1-0.7-0.3s-0.3-0.4-0.3-0.8c0-0.1,0-0.2,0-0.3c0-0.1,0.1-0.3,0.2-0.4l7.6-10.5
		l-7-9.8c-0.1-0.1-0.2-0.2-0.2-0.4c0-0.1-0.1-0.2-0.1-0.4c0-0.3,0.1-0.5,0.3-0.7s0.5-0.3,0.7-0.3h5.6c0.4,0,0.7,0.1,0.9,0.3
		c0.2,0.2,0.3,0.4,0.4,0.5l4.3,5.9l4.2-5.8c0.1-0.2,0.3-0.3,0.5-0.5s0.5-0.3,0.9-0.3h5.4c0.3,0,0.5,0.1,0.7,0.3s0.3,0.4,0.3,0.7
		c0,0.1,0,0.2,0,0.4c0,0.1-0.1,0.2-0.2,0.4l-7.1,9.8l7.8,10.5c0.1,0.1,0.2,0.2,0.2,0.4c0,0.1,0,0.2,0,0.3c0,0.3-0.1,0.6-0.3,0.8
		c-0.2,0.2-0.4,0.3-0.7,0.3h-5.9c-0.4,0-0.6-0.1-0.8-0.3c-0.2-0.2-0.3-0.3-0.5-0.5l-4.6-6.3l-4.7,6.3l-0.5,0.5
		c-0.2,0.2-0.5,0.3-0.8,0.3L371.8,238.3L371.8,238.3z"/>
	<path class="st2" d="M411.8,238.3c-2,0-3.6-0.3-5.1-0.9c-1.4-0.6-2.5-1.6-3.3-2.9c-0.8-1.3-1.1-3-1.1-5.1v-8.8h-3.6
		c-0.3,0-0.6-0.1-0.8-0.3c-0.2-0.2-0.3-0.5-0.3-0.8v-3.7c0-0.3,0.1-0.6,0.3-0.8c0.2-0.2,0.5-0.3,0.8-0.3h3.6v-7.5
		c0-0.3,0.1-0.6,0.3-0.8s0.5-0.3,0.8-0.3h5.3c0.3,0,0.6,0.1,0.8,0.3c0.2,0.2,0.3,0.5,0.3,0.8v7.5h5.7c0.3,0,0.6,0.1,0.8,0.3
		c0.2,0.2,0.3,0.5,0.3,0.8v3.7c0,0.3-0.1,0.6-0.3,0.8c-0.2,0.2-0.5,0.3-0.8,0.3h-5.7v8.1c0,1,0.2,1.9,0.6,2.5c0.4,0.6,1.1,0.9,2,0.9
		h3.5c0.3,0,0.6,0.1,0.8,0.3c0.2,0.2,0.3,0.5,0.3,0.8v4c0,0.3-0.1,0.6-0.3,0.8c-0.2,0.2-0.5,0.3-0.8,0.3L411.8,238.3L411.8,238.3z"
		/>
	<path class="st2" d="M431.9,238.7c-3.6,0-6.5-1-8.6-2.9c-2.1-1.9-3.2-4.8-3.3-8.7v-1.6c0.1-2.4,0.6-4.5,1.6-6.2s2.4-3,4.1-3.9
		c1.8-0.9,3.8-1.3,6.1-1.3c2.7,0,4.9,0.5,6.7,1.6c1.8,1.1,3.1,2.5,4,4.3c0.9,1.8,1.3,3.9,1.3,6.3v1.1c0,0.3-0.1,0.6-0.3,0.8
		s-0.5,0.3-0.8,0.3h-14.6v0.3c0,0.9,0.2,1.7,0.5,2.4c0.3,0.7,0.7,1.3,1.3,1.7c0.6,0.4,1.3,0.6,2.1,0.6c0.6,0,1.1-0.1,1.5-0.3
		c0.4-0.2,0.8-0.4,1-0.7s0.5-0.5,0.6-0.7c0.3-0.3,0.5-0.5,0.7-0.6c0.2-0.1,0.4-0.1,0.8-0.1h5.7c0.3,0,0.6,0.1,0.8,0.3
		s0.3,0.4,0.3,0.7c0,0.5-0.3,1.1-0.8,1.9c-0.5,0.7-1.2,1.5-2.1,2.2c-0.9,0.7-2.1,1.3-3.5,1.8S433.8,238.7,431.9,238.7L431.9,238.7z
		 M428.1,223.9h7.7v-0.1c0-1-0.1-1.9-0.4-2.6c-0.3-0.7-0.7-1.3-1.3-1.7c-0.6-0.4-1.3-0.6-2.1-0.6c-0.8,0-1.5,0.2-2.1,0.6
		s-1,1-1.3,1.7C428.2,222,428.1,222.9,428.1,223.9L428.1,223.9z"/>
	<path class="st2" d="M449.3,238.3c-0.3,0-0.6-0.1-0.8-0.3c-0.2-0.2-0.3-0.5-0.3-0.8v-21.5c0-0.3,0.1-0.6,0.3-0.8s0.5-0.3,0.8-0.3
		h5.3c0.3,0,0.6,0.1,0.8,0.3c0.2,0.2,0.3,0.5,0.3,0.8v1.7c0.8-0.9,1.8-1.7,3.1-2.4c1.3-0.6,2.8-1,4.5-1c1.8,0,3.3,0.4,4.7,1.2
		c1.4,0.8,2.4,1.9,3.2,3.5s1.2,3.4,1.2,5.7v12.8c0,0.3-0.1,0.6-0.3,0.8s-0.5,0.3-0.8,0.3h-5.8c-0.3,0-0.6-0.1-0.8-0.3
		s-0.3-0.5-0.3-0.8v-12.5c0-1.4-0.3-2.5-1-3.3c-0.7-0.8-1.7-1.2-3-1.2c-1.2,0-2.2,0.4-3,1.2c-0.7,0.8-1.1,1.9-1.1,3.3v12.5
		c0,0.3-0.1,0.6-0.3,0.8s-0.5,0.3-0.8,0.3H449.3L449.3,238.3z"/>
	<path class="st2" d="M487.3,238.7c-2,0-3.7-0.2-5.1-0.7c-1.4-0.4-2.5-1-3.4-1.6c-0.9-0.6-1.5-1.3-1.9-2c-0.4-0.7-0.7-1.3-0.7-1.8
		c0-0.3,0.1-0.6,0.3-0.8s0.5-0.3,0.8-0.3h5.2c0.1,0,0.2,0,0.3,0c0.1,0,0.2,0.1,0.3,0.2c0.4,0.2,0.8,0.5,1.2,0.8s0.9,0.6,1.4,0.8
		c0.5,0.2,1.1,0.4,1.9,0.4c0.9,0,1.6-0.2,2.1-0.5s0.9-0.8,0.9-1.5c0-0.5-0.1-0.9-0.4-1.2c-0.3-0.3-0.8-0.6-1.7-0.9
		c-0.8-0.3-2.1-0.6-3.8-0.9c-1.6-0.4-3-0.8-4.2-1.4c-1.2-0.6-2.1-1.4-2.7-2.3c-0.6-1-1-2.1-1-3.5c0-1.2,0.4-2.4,1.2-3.5
		c0.8-1.1,2-2.1,3.5-2.8c1.5-0.7,3.4-1.1,5.7-1.1c1.7,0,3.3,0.2,4.6,0.6c1.3,0.4,2.4,0.9,3.3,1.6c0.9,0.6,1.6,1.3,2,2
		c0.5,0.7,0.7,1.3,0.7,1.8c0,0.3-0.1,0.6-0.3,0.8c-0.2,0.2-0.5,0.3-0.7,0.3H492c-0.1,0-0.2,0-0.4-0.1s-0.2-0.1-0.3-0.2
		c-0.4-0.2-0.7-0.4-1.1-0.7s-0.8-0.6-1.3-0.8c-0.5-0.2-1.1-0.4-1.8-0.4c-0.8,0-1.5,0.2-1.9,0.5c-0.5,0.4-0.7,0.8-0.7,1.4
		c0,0.4,0.1,0.8,0.4,1.1c0.3,0.3,0.8,0.6,1.6,0.9s2.1,0.6,3.8,0.9c2.1,0.3,3.8,0.9,5,1.6c1.2,0.7,2.1,1.6,2.7,2.6
		c0.5,1,0.8,2,0.8,3.1c0,1.5-0.4,2.8-1.3,3.9c-0.9,1.1-2.2,2-3.9,2.6C491.9,238.4,489.8,238.7,487.3,238.7L487.3,238.7z"/>
	<path class="st2" d="M503.9,211.1c-0.3,0-0.6-0.1-0.8-0.3c-0.2-0.2-0.3-0.5-0.3-0.8v-4.1c0-0.3,0.1-0.6,0.3-0.8
		c0.2-0.2,0.5-0.3,0.8-0.3h5.5c0.3,0,0.6,0.1,0.8,0.3c0.2,0.2,0.3,0.5,0.3,0.8v4.1c0,0.3-0.1,0.6-0.3,0.8c-0.2,0.2-0.5,0.3-0.8,0.3
		H503.9z M504,238.3c-0.3,0-0.6-0.1-0.8-0.3c-0.2-0.2-0.3-0.5-0.3-0.8v-21.5c0-0.3,0.1-0.6,0.3-0.8s0.5-0.3,0.8-0.3h5.4
		c0.3,0,0.6,0.1,0.8,0.3c0.2,0.2,0.3,0.5,0.3,0.8v21.5c0,0.3-0.1,0.6-0.3,0.8c-0.2,0.2-0.5,0.3-0.8,0.3H504z"/>
	<path class="st2" d="M527.4,238.7c-2.6,0-4.7-0.4-6.5-1.2c-1.8-0.8-3.1-2-4-3.5c-0.9-1.5-1.5-3.4-1.6-5.5c0-0.6,0-1.3,0-2.1
		s0-1.5,0-2c0.1-2.2,0.7-4,1.6-5.5c1-1.5,2.3-2.7,4.1-3.5c1.8-0.8,3.9-1.2,6.3-1.2c2.5,0,4.6,0.4,6.4,1.2c1.8,0.8,3.1,2,4.1,3.5
		c1,1.5,1.5,3.4,1.6,5.5c0,0.6,0,1.3,0,2s0,1.5,0,2.1c-0.1,2.1-0.6,4-1.6,5.5s-2.3,2.7-4,3.5S530,238.7,527.4,238.7L527.4,238.7z
		 M527.4,233.1c1.4,0,2.4-0.4,3-1.2c0.6-0.8,1-2.1,1.1-3.7c0-0.5,0-1.1,0-1.8s0-1.4,0-1.8c-0.1-1.6-0.4-2.8-1.1-3.7s-1.6-1.3-3-1.3
		c-1.3,0-2.3,0.4-2.9,1.3c-0.7,0.8-1,2.1-1.1,3.7c0,0.5,0,1.1,0,1.8s0,1.4,0,1.8c0.1,1.6,0.4,2.9,1.1,3.7
		C525.1,232.7,526.1,233.1,527.4,233.1z"/>
	<path class="st2" d="M545.2,238.3c-0.3,0-0.6-0.1-0.8-0.3c-0.2-0.2-0.3-0.5-0.3-0.8v-21.5c0-0.3,0.1-0.6,0.3-0.8s0.5-0.3,0.8-0.3
		h5.3c0.3,0,0.6,0.1,0.8,0.3c0.2,0.2,0.3,0.5,0.3,0.8v1.7c0.8-0.9,1.8-1.7,3.1-2.4c1.3-0.6,2.8-1,4.5-1c1.8,0,3.3,0.4,4.7,1.2
		c1.4,0.8,2.4,1.9,3.2,3.5s1.2,3.4,1.2,5.7v12.8c0,0.3-0.1,0.6-0.3,0.8s-0.5,0.3-0.8,0.3h-5.8c-0.3,0-0.6-0.1-0.8-0.3
		s-0.3-0.5-0.3-0.8v-12.5c0-1.4-0.3-2.5-1-3.3c-0.7-0.8-1.7-1.2-3-1.2c-1.2,0-2.2,0.4-3,1.2c-0.7,0.8-1.1,1.9-1.1,3.3v12.5
		c0,0.3-0.1,0.6-0.3,0.8s-0.5,0.3-0.8,0.3H545.2L545.2,238.3z"/>
</g>
</svg>
