<?xml version="1.0" standalone="no"?>
<!DOCTYPE svg PUBLIC "-//W3C//DTD SVG 1.1//EN" "www.w3.org/Graphics/SVG/1.1/DTD/svg11.dtd" >
<svg xmlns="www.w3.org/2000/svg">
<metadata>Generated by IcoMoon</metadata>
<defs>
<font id="dT-Icons" horiz-adv-x="1024">
<font-face units-per-em="1024" ascent="960" descent="-64" />
<missing-glyph horiz-adv-x="1024" />
<glyph unicode="&#x20;" horiz-adv-x="512" d="" />
<glyph unicode="&#xe900;" glyph-name="ico_event_date" d="M887.467 721.067h-68.267c-18.865 0-34.133-14.558-34.133-33.423s15.268-34.133 34.133-34.133h68.267v-512.71h-716.8v513.423l68.267-0.713c18.848 0 34.133 15.978 34.133 34.847s-15.285 32.71-34.133 32.71h-68.267c-37.649 0-68.267-29.211-68.267-66.843v-512.713c0-37.632 30.618-68.267 68.267-68.267h747.414c1.215-0.13 2.27-0.71 3.519-0.71 18.865 0 34.133 15.268 34.133 34.133v555.377c0 37.632-30.635 59.023-68.267 59.023zM443.733 652.8h170.667c18.865 0 34.133 15.268 34.133 34.133s-15.268 34.133-34.133 34.133h-170.667c-18.848 0-34.133-15.268-34.133-34.133s15.285-34.133 34.133-34.133zM341.333 610.133c18.848 0 34.133 15.268 34.133 34.133v102.4c0 18.865-15.285 34.133-34.133 34.133s-34.133-15.268-34.133-34.133v-102.4c0-18.865 15.285-34.133 34.133-34.133zM716.8 610.133c18.865 0 34.133 15.268 34.133 34.133v102.4c0 18.865-15.268 34.133-34.133 34.133s-34.133-15.268-34.133-34.133v-102.4c0-18.865 15.268-34.133 34.133-34.133zM359.349 474.532c5.516-5.533 12.8-8.199 20.767-8.199 11.851 0 25.235 5.932 36.55 17.268 18.917 18.934 22.818 43.568 9.049 57.334-13.732 13.732-38.4 9.868-57.317-9.066s-22.818-43.568-9.049-57.334zM562.251 540.935c-13.718 13.732-38.383 9.868-57.317-9.066-18.917-18.934-22.818-43.568-9.049-57.334 5.516-5.533 12.8-8.199 20.767-8.199 11.851 0 25.235 5.932 36.55 17.268 18.917 18.934 22.818 43.568 9.049 57.334zM425.718 404.401c-13.732 13.766-38.4 9.868-57.317-9.066s-22.818-43.568-9.049-57.334c5.516-5.533 12.8-8.199 20.767-8.199 11.851 0 25.235 5.932 36.55 17.268 18.917 18.934 22.818 43.568 9.049 57.334zM562.251 404.401c-13.718 13.766-38.383 9.868-57.317-9.066-18.917-18.934-22.818-43.568-9.049-57.334 5.516-5.533 12.8-8.199 20.767-8.199 11.851 0 25.235 5.932 36.55 17.268 18.917 18.934 22.818 43.568 9.049 57.334zM632.399 474.532c5.284-5.267 12.667-8.199 20.801-8.199 12.233 0 25.566 6.301 36.533 17.268 18.934 18.934 22.832 43.568 9.066 57.334s-38.366 9.868-57.334-9.066c-18.917-18.934-22.818-43.568-9.066-57.334zM789.729 466.333c12.233 0 25.566 6.301 36.533 17.268 18.934 18.934 22.832 43.568 9.066 57.334s-38.366 9.868-57.334-9.066c-18.917-18.934-22.818-43.568-9.066-57.334 5.284-5.267 12.667-8.199 20.801-8.199zM698.801 404.401c-13.766 13.766-38.366 9.868-57.334-9.066-18.917-18.934-22.818-43.568-9.066-57.334 5.284-5.267 12.667-8.199 20.801-8.199 12.233 0 25.566 6.301 36.533 17.268 18.934 18.934 22.832 43.568 9.066 57.334zM789.729 329.8c12.233 0 25.566 6.301 36.533 17.268 18.934 18.934 22.832 43.568 9.066 57.334s-38.366 9.868-57.334-9.066c-18.917-18.934-22.818-43.568-9.066-57.334 5.284-5.267 12.667-8.199 20.801-8.199zM368.401 258.799c-18.917-18.934-22.818-43.568-9.049-57.334 5.516-5.533 12.8-8.199 20.767-8.199 11.851 0 25.235 5.932 36.55 17.268 18.917 18.934 22.818 43.568 9.049 57.334-13.732 13.766-38.4 9.868-57.317-9.066zM231.868 531.866c-18.917-18.934-22.818-43.568-9.049-57.334 5.516-5.533 12.8-8.199 20.767-8.199 11.851 0 25.235 5.932 36.55 17.268 18.917 18.934 22.818 43.568 9.049 57.334-13.732 13.732-38.4 9.868-57.317-9.066zM289.184 404.401c-13.732 13.766-38.4 9.868-57.317-9.066s-22.818-43.568-9.049-57.334c5.516-5.533 12.8-8.199 20.767-8.199 11.851 0 25.235 5.932 36.55 17.268 18.917 18.934 22.818 43.568 9.049 57.334zM231.868 258.799c-18.917-18.934-22.818-43.568-9.049-57.334 5.516-5.533 12.8-8.199 20.767-8.199 11.851 0 25.235 5.932 36.55 17.268 18.917 18.934 22.818 43.568 9.049 57.334-13.732 13.766-38.4 9.868-57.317-9.066zM504.934 258.799c-18.917-18.934-22.818-43.568-9.049-57.334 5.516-5.533 12.8-8.199 20.767-8.199 11.851 0 25.235 5.932 36.55 17.268 18.917 18.934 22.818 43.568 9.049 57.334-13.718 13.766-38.383 9.868-57.317-9.066zM641.468 258.799c-18.917-18.934-22.818-43.568-9.066-57.334 5.284-5.267 12.667-8.199 20.801-8.199 12.233 0 25.566 6.301 36.533 17.268 18.934 18.934 22.832 43.568 9.066 57.334s-38.366 9.868-57.334-9.066zM789.729 193.266c12.233 0 25.566 6.301 36.533 17.268 18.934 18.934 22.832 43.568 9.066 57.334s-38.366 9.868-57.334-9.066c-18.917-18.934-22.818-43.568-9.066-57.334 5.284-5.267 12.667-8.199 20.801-8.199z" />
<glyph unicode="&#xe901;" glyph-name="ico_event_language" d="M95.194 157.232c-10.667 0-20.866 5.001-27.399 13.766-7.735 10.4-8.899 24.265-3.034 35.833 31.099 61.167 50.268 117.535 52.767 154.201-37.499 49.333-57.999 109.899-57.999 171.899 0 176.036 168.434 319.235 375.467 319.235s375.467-143.2 375.467-319.232c0-89.102-44.165-174.899-121.167-235.366-94.867-74.499-226.133-99.833-361.933-70.233-60.232-31.901-165.833-58.699-226.099-69.567-2.034-0.365-4.065-0.532-6.065-0.532zM434.995 783.899c-169.4 0-307.2-112.568-307.2-250.965 0-50.401 17.865-99.567 50.268-138.4 4.902-5.868 7.666-13.199 7.933-20.835 1.266-41.301-14.1-91.566-31.433-134.533 58.866 14.766 119.566 34.966 149.668 53.466 7.735 4.765 16.968 6.199 25.965 4.099 119.9-29.3 235.5-9.4 316.935 54.501 60.433 47.466 95.068 113.702 95.068 181.699 0 138.4-137.8 250.965-307.2 250.965zM905.663 43.834c-3.734 0-7.499 0.601-11.134 1.867l-58.132 20.033c-26.266 9.032-39.233 14.701-54.9 23.699-71.933-14.766-162.266-21.432-246.234 35.434-15.599 10.568-19.698 31.799-9.134 47.401 10.598 15.599 31.867 19.668 47.401 9.134 67.267-45.568 142.1-36.833 206.466-22.467 8.666 2 17.732 0.399 25.334-4.198 16.8-10.332 24.102-14.401 53.299-24.467-6.1 26.6-6.434 38.632-5.765 61.635 0.232 7.168 2.7 14.1 7.066 19.767 27.167 35.468 39.465 72.301 35.567 106.568-3.601 31.399-19.633 59.935-47.667 84.801-14.135 12.5-15.401 34.065-2.901 48.166 12.5 14.199 34.065 15.401 48.166 2.901 40.465-35.867 64.734-80.166 70.199-128.133 5.632-48.968-9.032-99.468-42.4-146.599-0.099-11.165 0.7-18.333 4.267-33.833l13.766-59.935c2.768-12.066-1.232-24.733-10.435-33-6.366-5.734-14.534-8.765-22.832-8.765z" />
<glyph unicode="&#xe902;" glyph-name="ico_event_location" d="M512 4.267c-10.465 0-20.367 4.799-26.832 13.032-30.433 38.7-297.434 382.935-297.434 550.168 0 178.801 145.466 324.267 324.267 324.267s324.267-145.466 324.267-324.267c0-167.233-267.001-511.468-297.434-550.168-6.468-8.233-16.367-13.032-26.832-13.032zM512 823.467c-141.165 0-256-114.835-256-256 0-109.582 165.632-352.7 256-472.999 90.368 120.3 256 363.418 256 472.999 0 141.165-114.835 256-256 256zM512 388.499c-98.666 0-178.934 80.299-178.934 178.968s80.268 178.951 178.934 178.951 178.934-80.285 178.934-178.951-80.268-178.968-178.934-178.968zM512 678.147c-61.034 0-110.667-49.65-110.667-110.684s49.633-110.684 110.667-110.684 110.667 49.65 110.667 110.684-49.633 110.684-110.667 110.684z" />
<glyph unicode="&#xe903;" glyph-name="ico_event_time" d="M709.973 628.907l-187.733-146.773c-3.413 0-6.827 0-10.24 0s-6.827 0-10.24 0l-133.12 95.573 95.573-133.12c0-3.413 0-6.827 0-10.24 0-27.307 23.893-51.2 51.2-51.2s51.2 23.893 51.2 51.2c0 3.413 0 6.827 0 10.24l143.36 184.32zM512 837.12c-215.040 0-389.12-174.080-389.12-389.12s174.080-389.12 389.12-389.12 389.12 174.080 389.12 389.12-174.080 389.12-389.12 389.12zM750.933 232.96l-40.96 17.067 17.067-40.96c-51.2-44.373-116.053-75.093-191.147-81.92l-23.893 102.4-23.893-102.4c-75.093 6.827-139.947 37.547-191.147 81.92l17.067 40.96-40.96-17.067c-44.373 51.2-75.093 116.053-81.92 191.147l102.4 23.893-102.4 23.893c6.827 75.093 37.547 139.947 81.92 191.147l40.96-17.067-17.067 40.96c51.2 44.373 116.053 75.093 191.147 81.92l23.893-102.4 23.893 102.4c71.68-6.827 139.947-37.547 191.147-81.92l-17.067-40.96 40.96 17.067c47.787-51.2 78.507-116.053 81.92-191.147l-102.4-23.893 102.4-23.893c-6.827-75.093-37.547-139.947-81.92-191.147z" />
<glyph unicode="&#xe904;" glyph-name="icon_event_timezone" d="M477.867 843.947c-208.213 0-375.467-167.253-375.467-375.467 0-197.973 157.013-361.813 354.987-375.467-3.413 3.413-3.413 6.827-3.413 10.24-3.413 6.827-23.893 112.64-23.893 116.053-13.653 30.72-27.307 75.093-34.133 133.12h75.093c13.653 23.893 30.72 44.373 47.787 61.44h-129.707c-3.413 17.067-3.413 37.547-3.413 54.613s3.413 37.547 3.413 54.613h177.493c0-17.067 0-34.133 0-54.613 0-6.827 0-10.24 0-17.067 20.48 13.653 44.373 23.893 64.853 30.72 0 13.653 0 27.307 0 40.96h85.333c17.067 0 30.72 13.653 30.72 30.72s-13.653 30.72-30.72 30.72h-92.16c-6.827 68.267-23.893 129.707-47.787 174.080v3.413c3.413 0 6.827 0 6.827-3.413 112.64-40.96 197.973-143.36 208.213-269.653 6.827 0 13.653-3.413 17.067-3.413s10.24-3.413 17.067-6.827c10.24-3.413 23.893-10.24 34.133-13.653v3.413c-6.827 208.213-174.080 375.467-382.293 375.467zM320.853 519.68c-3.413-17.067-3.413-34.133-3.413-54.613 0-17.067 3.413-34.133 3.413-51.2h-81.92c-17.067 0-30.72-13.653-30.72-30.72s13.653-30.72 30.72-30.72h88.747c0 0 0-3.413 0-3.413 6.827-64.853 23.893-129.707 47.787-174.080-122.88 47.787-204.8 160.427-204.8 293.547s85.333 249.173 204.8 290.133v-3.413c-23.893-44.373-37.547-102.4-47.787-170.667h-88.747c-17.067 0-30.72-13.653-30.72-30.72s13.653-30.72 30.72-30.72h81.92c0 0 0-3.413 0-3.413zM395.947 584.533c17.067 119.467 58.027 184.32 81.92 184.32s64.853-64.853 81.92-184.32h-163.84zM822.613 304.64l-105.813-68.267-71.68 37.547 51.2-98.987c6.827-6.827 13.653-10.24 23.893-10.24s17.067 3.413 23.893 10.24l78.507 129.707zM716.8 430.933c-122.88 0-221.867-98.987-221.867-221.867s98.987-221.867 221.867-221.867 221.867 98.987 221.867 221.867-98.987 221.867-221.867 221.867zM870.4 192c-3.413-27.307-13.653-51.2-27.307-71.68h-37.547v-37.547c-20.48-13.653-44.373-23.893-71.68-27.307l-17.067 37.547-17.067-37.547c-27.307 3.413-51.2 13.653-71.68 27.307v37.547h-37.547c-13.653 20.48-23.893 44.373-27.307 71.68l34.133 17.067-34.133 17.067c3.413 27.307 13.653 51.2 27.307 71.68h37.547v37.547c20.48 13.653 44.373 23.893 71.68 27.307l17.067-34.133 17.067 34.133c27.307-3.413 51.2-13.653 71.68-27.307v-37.547h37.547c13.653-20.48 23.893-44.373 27.307-71.68l-37.547-17.067 37.547-17.067z" />
<glyph unicode="&#xe905;" glyph-name="ico_chat" d="M93.034 162.7c-10.667 0-20.866 5.001-27.399 13.766-7.735 10.4-8.899 24.265-3.034 35.833 31.099 61.167 50.268 117.535 52.767 154.201-37.499 49.333-57.999 109.899-57.999 171.899 0 176.036 168.431 319.235 375.467 319.235s375.467-143.2 375.467-319.232c0-89.102-44.165-174.899-121.167-235.366-94.867-74.499-226.133-99.833-361.933-70.233-60.232-31.901-165.833-58.699-226.099-69.567-2.034-0.365-4.065-0.532-6.065-0.532zM432.835 789.367c-169.4 0-307.2-112.568-307.2-250.965 0-50.401 17.865-99.567 50.268-138.4 4.902-5.868 7.666-13.199 7.933-20.835 1.266-41.301-14.1-91.566-31.433-134.533 58.866 14.766 119.566 34.966 149.668 53.466 7.735 4.765 16.968 6.199 25.965 4.099 119.9-29.3 235.5-9.4 316.935 54.501 60.433 47.466 95.068 113.702 95.068 181.699 0 138.4-137.8 250.965-307.2 250.965zM313.361 533.931c0-18.851-15.282-34.133-34.133-34.133s-34.133 15.282-34.133 34.133c0 18.851 15.282 34.133 34.133 34.133s34.133-15.282 34.133-34.133zM466.961 533.931c0-18.851-15.282-34.133-34.133-34.133s-34.133 15.282-34.133 34.133c0 18.851 15.282 34.133 34.133 34.133s34.133-15.282 34.133-34.133zM620.561 533.931c0-18.851-15.282-34.133-34.133-34.133s-34.133 15.282-34.133 34.133c0 18.851 15.282 34.133 34.133 34.133s34.133-15.282 34.133-34.133zM903.499 49.299c-3.734 0-7.499 0.601-11.134 1.867l-58.132 20.033c-26.266 9.032-39.233 14.701-54.9 23.699-71.933-14.766-162.266-21.432-246.234 35.434-15.599 10.568-19.698 31.799-9.134 47.401 10.598 15.599 31.867 19.668 47.401 9.134 67.267-45.568 142.1-36.833 206.466-22.467 8.666 2 17.732 0.399 25.334-4.198 16.8-10.332 24.102-14.401 53.299-24.467-6.1 26.6-6.434 38.632-5.765 61.635 0.232 7.168 2.7 14.1 7.066 19.767 27.167 35.468 39.465 72.301 35.567 106.568-3.601 31.399-19.633 59.935-47.667 84.801-14.135 12.5-15.401 34.065-2.901 48.166 12.5 14.199 34.065 15.401 48.166 2.901 40.465-35.867 64.734-80.166 70.199-128.133 5.632-48.968-9.032-99.468-42.4-146.599-0.099-11.165 0.7-18.333 4.267-33.833l13.766-59.935c2.768-12.066-1.232-24.733-10.435-33-6.366-5.734-14.534-8.765-22.832-8.765z" />
<glyph unicode="&#xe906;" glyph-name="ico_download" d="M785.067 106.667h-546.133c-37.632 0-68.267 30.618-68.267 68.267v68.267c0 18.848 15.268 34.133 34.133 34.133s34.133-15.285 34.133-34.133v-68.267h546.133v68.267c0 18.848 15.268 34.133 34.133 34.133s34.133-15.285 34.133-34.133v-68.267c0-37.649-30.635-68.267-68.267-68.267zM662.968 422.048c-13.332 13.332-34.932 13.332-48.268 0l-68.567-68.557v367.575c0 18.848-15.268 34.133-34.133 34.133s-34.133-15.285-34.133-34.133v-367.572l-68.567 68.557c-13.332 13.332-34.932 13.332-48.268 0s-13.332-34.932 0-48.268l126.833-126.816c6.666-6.666 15.401-10.001 24.132-10.001s17.466 3.335 24.132 10.001l126.833 126.816c13.332 13.332 13.332 34.932 0 48.268z" />
<glyph unicode="&#xe907;" glyph-name="ico_download_1" d="M682.667 209.067h-341.333c-18.865 0-34.133 15.285-34.133 34.133s15.268 34.133 34.133 34.133h341.333c18.865 0 34.133-15.285 34.133-34.133s-15.268-34.133-34.133-34.133zM662.968 490.315c-13.332 13.332-34.932 13.332-48.268 0l-68.567-68.557v299.308c0 18.848-15.268 34.133-34.133 34.133s-34.133-15.285-34.133-34.133v-299.305l-68.567 68.557c-13.332 13.332-34.932 13.332-48.268 0s-13.332-34.932 0-48.268l126.833-126.816c6.666-6.666 15.401-10.001 24.132-10.001s17.466 3.335 24.132 10.001l126.833 126.816c13.332 13.332 13.332 34.932 0 48.268zM512-12.8c-254.099 0-460.8 206.718-460.8 460.8s206.701 460.8 460.8 460.8 460.8-206.718 460.8-460.8-206.701-460.8-460.8-460.8zM512 840.533c-216.433 0-392.533-176.084-392.533-392.533s176.101-392.533 392.533-392.533 392.533 176.084 392.533 392.533-176.101 392.533-392.533 392.533z" />
<glyph unicode="&#xe908;" glyph-name="ico_download_2" d="M682.667 140.8h-341.333c-18.865 0-34.133 15.285-34.133 34.133s15.268 34.133 34.133 34.133h341.333c18.865 0 34.133-15.285 34.133-34.133s-15.268-34.133-34.133-34.133zM662.968 445.368c-13.332 13.332-34.932 13.332-48.268 0l-68.567-68.567v231.035c0 18.848-15.268 34.133-34.133 34.133s-34.133-15.285-34.133-34.133v-231.035l-68.567 68.567c-13.332 13.332-34.932 13.332-48.268 0s-13.332-34.932 0-48.268l126.833-126.833c6.666-6.666 15.401-10.001 24.132-10.001s17.466 3.335 24.132 10.001l126.833 126.833c13.332 13.332 13.332 34.932 0 48.268zM853.333 690.818c0 7.885-2.734 15.517-7.735 21.617l-136.533 166.782c-6.468 7.916-16.166 12.517-26.399 12.517h-477.867c-18.865 0-34.133-15.285-34.133-34.133v-819.2c0-18.848 15.268-34.133 34.133-34.133h614.4c18.865 0 34.133 15.285 34.133 34.133 0 1.017-0.034 2.017-0.133 3 0.099 0.983 0.133 1.983 0.133 3v646.417zM777.243 686.933h-128.71v136.533l128.71-136.533zM785.067 72.533h-546.133v750.933h341.333v-170.667c0-18.848 15.268-34.133 34.133-34.133h170.667v-546.133z" />
<glyph unicode="&#xe909;" glyph-name="ico_download_pdf" d="M580.267 345.6h-170.667c-10.24 0-17.067 6.827-17.067 17.067s6.827 17.067 17.067 17.067h170.667c10.24 0 17.067-6.827 17.067-17.067s-6.827-17.067-17.067-17.067zM853.333 690.347c0 6.827-3.413 17.067-6.827 20.48l-136.533 167.253c-6.827 10.24-17.067 13.653-27.307 13.653h-477.867c-20.48 0-34.133-13.653-34.133-34.133v-819.2c0-20.48 13.653-34.133 34.133-34.133h614.4c20.48 0 34.133 13.653 34.133 34.133 0 0 0 3.413 0 3.413s0 3.413 0 3.413v645.12zM648.533 823.467l129.707-136.533h-129.707v136.533zM341.333 140.8h-34.133v-68.267h-34.133v170.667h58.027c10.24 0 54.613-3.413 54.613-51.2s-44.373-51.2-44.373-51.2zM570.027 113.493c-6.827-13.653-13.653-23.893-27.307-30.72-10.24-6.827-23.893-10.24-40.96-10.24h-58.027v170.667h58.027c17.067 0 30.72-3.413 40.96-10.24s20.48-17.067 27.307-30.72c6.827-13.653 10.24-27.307 10.24-44.373s-3.413-34.133-10.24-44.373v0zM750.933 209.067h-68.267v-34.133h68.267v-34.133h-68.267v-68.267h-34.133v170.667h102.4v-34.133zM785.067 311.467h-546.133v512h341.333v-170.667c0-20.48 13.653-34.133 34.133-34.133h170.667v-307.2zM505.173 209.067h-27.307v-102.4h30.72c13.653 0 20.48 6.827 27.307 13.653s10.24 20.48 10.24 37.547c0 17.067-3.413 30.72-10.24 37.547-6.827 10.24-17.067 13.653-30.72 13.653v0zM337.92 209.067h-30.72v-34.133h30.72c0 0 17.067 0 17.067 17.067s-17.067 17.067-17.067 17.067zM593.92 536.747c-6.827 6.827-17.067 6.827-23.893 0l-58.027-54.613v170.667c0 10.24-6.827 17.067-17.067 17.067s-17.067-6.827-17.067-17.067v-170.667l-54.613 54.613c-6.827 6.827-17.067 6.827-23.893 0s-6.827-17.067 0-23.893l85.333-85.333c3.413-3.413 6.827-3.413 13.653-3.413s10.24 0 13.653 3.413l85.333 85.333c0 6.827 0 17.067-3.413 23.893z" />
<glyph unicode="&#xe90a;" glyph-name="ico_evaluate" d="M665.6 311.467h-341.333c-9.434 0-17.067 7.632-17.067 17.067v341.333c0 9.434 7.632 17.067 17.067 17.067h290.133c9.434 0 17.067-7.632 17.067-17.067s-7.632-17.067-17.067-17.067h-273.067v-307.2h307.2v85.333c0 9.434 7.632 17.067 17.067 17.067s17.067-7.632 17.067-17.067v-102.4c0-9.434-7.632-17.067-17.067-17.067zM870.612 106.377l-93.795 132.523c64.212 69.41 103.817 161.905 103.817 263.7 0 214.566-174.568 389.134-389.117 389.134s-389.117-174.568-389.117-389.134 174.551-389.1 389.117-389.1c63.409 0 123.143 15.561 176.094 42.578l95.768-134.26c13.401-17.882 33.901-27.3 54.668-27.3 17.732 0 35.676 6.909 49.568 21.306 23.545 24.399 23.34 63.427 2.997 90.556zM170.667 502.6c0 176.934 143.933 320.867 320.85 320.867s320.85-143.933 320.85-320.867-143.933-320.833-320.85-320.833-320.85 143.933-320.85 320.833zM527.684 415.232c-9.049 0-17.732 3.601-24.132 10.001l-85.2 85.2c-13.332 13.332-13.332 34.932 0 48.268s34.932 13.332 48.268 0l60.167-60.167 165.018 177.5c12.899 13.834 34.499 14.534 48.234 1.768 13.8-12.834 14.599-34.434 1.768-48.234l-189.133-203.435c-6.301-6.799-15.101-10.735-24.368-10.899h-0.618z" />
<glyph unicode="&#xe90b;" glyph-name="ico_evaluate-1" d="M819.2 106.667h-614.4c-18.865 0-34.133 15.268-34.133 34.133v614.4c0 18.865 15.268 34.133 34.133 34.133h546.133c18.865 0 34.133-15.268 34.133-34.133s-15.268-34.133-34.133-34.133h-512v-546.133h546.133v154.433c0 18.865 15.268 34.133 34.133 34.133s34.133-15.268 34.133-34.133v-188.566c0-18.865-15.268-34.133-34.133-34.133zM529.401 260.366c-9.032 0-17.732 3.601-24.132 10.001l-169.632 169.632c-13.332 13.332-13.332 34.932 0 48.268s34.932 13.332 48.268 0l144.599-144.599 352.396 379.098c12.868 13.834 34.499 14.534 48.234 1.768 13.8-12.834 14.599-34.434 1.768-48.234l-376.501-405.033c-6.301-6.799-15.101-10.735-24.368-10.899h-0.635z" />
<glyph unicode="&#xe90c;" glyph-name="ico_external" d="M853.333 755.2h-238.933c-18.865 0-34.133-15.285-34.133-34.133s15.268-34.133 34.133-34.133h156.798l-293.533-293.533c-13.332-13.332-13.332-34.932 0-48.268 6.666-6.666 15.401-10.001 24.132-10.001s17.466 3.335 24.132 10.001l293.267 293.267v-156.266c0-18.848 15.268-34.133 34.133-34.133s34.133 15.285 34.133 34.133v238.933c0 18.848-15.268 34.133-34.133 34.133zM750.933 72.533h-512c-18.865 0-34.133 15.285-34.133 34.133v512c0 18.848 15.268 34.133 34.133 34.133h302.8c18.865 0 34.133-15.285 34.133-34.133s-15.268-34.133-34.133-34.133h-268.667v-443.733s443.733 0 443.733 0v273.067c0 18.848 15.268 34.133 34.133 34.133s34.133-15.285 34.133-34.133v-307.2c0-18.848-15.268-34.133-34.133-34.133z" />
<glyph unicode="&#xe90d;" glyph-name="ico_linkedin" d="M750.933 38.4h-477.867c-94.099 0-170.667 76.568-170.667 170.667v477.867c0 94.099 76.568 170.667 170.667 170.667h477.867c94.099 0 170.667-76.568 170.667-170.667v-477.867c0-94.099-76.568-170.667-170.667-170.667zM273.067 789.333c-56.467 0-102.4-45.933-102.4-102.4v-477.867c0-56.467 45.933-102.4 102.4-102.4h477.867c56.467 0 102.4 45.933 102.4 102.4v477.867c0 56.467-45.933 102.4-102.4 102.4h-477.867zM273.067 554.1h102.4v-343.811h-102.4v343.811zM383.683 648.864c0-30.451-24.489-55.136-54.699-55.136s-54.699 24.685-54.699 55.136c0 30.451 24.489 55.136 54.699 55.136s54.699-24.685 54.699-55.136zM756.289 210.289h-93.768v172.070c0 105.267-125.020 97.297-125.020 0v-172.070h-93.768v340.722h93.768v-55.166c43.633 80.828 218.788 86.798 218.788-77.387v-208.169z" />
<glyph unicode="&#xe90e;" glyph-name="ico_logo" d="M136.533 618.667c-18.865 0-34.133 15.268-34.133 34.133v170.667c0 18.865 15.268 34.133 34.133 34.133h170.667c18.865 0 34.133-15.268 34.133-34.133s-15.268-34.133-34.133-34.133h-136.533v-136.533c0-18.865-15.268-34.133-34.133-34.133zM887.467 618.667c-18.865 0-34.133 15.268-34.133 34.133v136.533h-136.533c-18.865 0-34.133 15.268-34.133 34.133s15.268 34.133 34.133 34.133h170.667c18.865 0 34.133-15.268 34.133-34.133v-170.667c0-18.865-15.268-34.133-34.133-34.133zM307.2 38.4h-170.667c-18.865 0-34.133 15.268-34.133 34.133v170.667c0 18.865 15.268 34.133 34.133 34.133s34.133-15.268 34.133-34.133v-136.533h136.533c18.865 0 34.133-15.268 34.133-34.133s-15.268-34.133-34.133-34.133zM887.467 38.4h-170.667c-18.865 0-34.133 15.268-34.133 34.133s15.268 34.133 34.133 34.133h136.533v136.533c0 18.865 15.268 34.133 34.133 34.133s34.133-15.268 34.133-34.133v-170.667c0-18.865-15.268-34.133-34.133-34.133zM488.878 431.937h-92.491c-8.513 0-15.415 7.192-15.415 16.063s6.902 16.063 15.415 16.063h92.491c8.513 0 15.415-7.192 15.415-16.063s-6.902-16.063-15.415-16.063zM350.143 448c0-8.871-6.901-16.063-15.415-16.063s-15.415 7.192-15.415 16.063c0 8.871 6.901 16.063 15.415 16.063s15.415-7.192 15.415-16.063zM488.878 367.688h-184.982c-8.513 0-15.415 7.192-15.415 16.063s6.902 16.063 15.415 16.063h184.982c25.542 0 46.244 21.576 46.244 48.189s-20.705 48.189-46.244 48.189h-184.982c-8.513 0-15.415 7.192-15.415 16.063s6.902 16.063 15.415 16.063h184.982c42.568 0 77.076-35.956 77.076-80.312s-34.509-80.312-77.076-80.312zM401.603 303.435h-113.121c-8.513 0-15.415 7.192-15.415 16.063s6.902 16.063 15.415 16.063h113.121c8.513 0 15.415-7.192 15.415-16.063s-6.902-16.063-15.415-16.063zM523.561 308.589c-8.513-0.007-15.421 7.178-15.428 16.049-0.007 7.144 4.516 13.435 11.1 15.435 57.19 17.456 89.975 79.916 73.226 139.51-4.113 14.63-11.035 28.235-20.35 39.991-5.424 6.837-4.502 16.964 2.062 22.613 6.564 5.652 16.278 4.69 21.702-2.147 20.504-25.917 31.724-58.453 31.741-92.041 0.096-31.601-9.841-62.345-28.262-87.45-17.992-24.579-43.025-42.554-71.475-51.319-1.403-0.427-2.857-0.645-4.318-0.642zM473.771 560.439h-123.628c-8.513 0-15.415 7.192-15.415 16.063s6.902 16.063 15.415 16.063h123.628c8.513 0 15.415-7.192 15.415-16.063s-6.902-16.063-15.415-16.063zM488.878 239.186h-200.397c-8.513 0-15.415 7.192-15.415 16.063s6.902 16.063 15.415 16.063h200.397c93.607 0.102 169.465 79.148 169.564 176.691 0 97.42-76.059 176.691-169.564 176.691h-200.397c-8.513 0-15.415 7.192-15.415 16.063s6.902 16.063 15.415 16.063h200.397c110.476 0 200.397-93.699 200.397-208.814s-89.897-208.814-200.397-208.814zM430.711 174.933h-142.23c-8.513 0-15.415 7.192-15.415 16.063s6.902 16.063 15.415 16.063h142.23c8.513 0 15.415-7.192 15.415-16.063s-6.902-16.063-15.415-16.063zM554.39 184.088c-8.513-0.024-15.435 7.148-15.459 16.019-0.020 7.267 4.646 13.64 11.373 15.544 54.828 15.732 102.168 51.975 132.956 101.799 4.318 7.646 13.766 10.199 21.101 5.7 7.339-4.499 9.786-14.343 5.472-21.989-0.215-0.379-0.444-0.751-0.689-1.113-34.895-56.45-88.538-97.512-150.668-115.33-1.328-0.406-2.703-0.618-4.086-0.628zM734.826 412.235h-1.181c-8.489 0.669-14.848 8.383-14.206 17.227 0.451 6.103 0.669 12.329 0.669 18.487 0.027 92.095-50.33 176.148-129.744 216.566-7.649 3.898-10.813 13.52-7.072 21.49s12.977 11.267 20.623 7.369c89.972-45.804 147.029-141.029 147.023-245.371 0-6.96-0.256-14.001-0.758-20.907-0.604-8.373-7.294-14.848-15.35-14.858zM478.522 688.94h-174.626c-8.513 0-15.415 7.192-15.415 16.063s6.902 16.063 15.415 16.063h174.705c8.513 0 15.415-7.192 15.415-16.063s-6.902-16.063-15.415-16.063h-0.079zM303.896 576.502c0-8.871-6.901-16.063-15.415-16.063s-15.415 7.192-15.415 16.063c0 8.871 6.901 16.063 15.415 16.063s15.415-7.192 15.415-16.063zM550.537 567.132c0-8.871-6.901-16.063-15.415-16.063s-15.415 7.192-15.415 16.063c0 8.871 6.901 16.063 15.415 16.063s15.415-7.192 15.415-16.063zM478.601 319.498c0-8.871-6.901-16.063-15.415-16.063s-15.415 7.192-15.415 16.063c0 8.871 6.901 16.063 15.415 16.063s15.415-7.192 15.415-16.063zM508.146 190.996c0-8.871-6.901-16.063-15.415-16.063s-15.415 7.192-15.415 16.063c0 8.871 6.901 16.063 15.415 16.063s15.415-7.192 15.415-16.063zM738.086 366.346c0-8.871-6.901-16.063-15.415-16.063s-15.415 7.192-15.415 16.063c0 8.871 6.901 16.063 15.415 16.063s15.415-7.192 15.415-16.063zM554.39 699.648c0-8.871-6.901-16.063-15.415-16.063s-15.415 7.192-15.415 16.063c0 8.871 6.901 16.063 15.415 16.063s15.415-7.192 15.415-16.063z" />
<glyph unicode="&#xe90f;" glyph-name="ico_mail" d="M853.333 618.667v-443.733h-682.667v443.733h682.667zM853.333 686.933h-682.667c-37.704 0-68.267-30.563-68.267-68.267v-443.733c0-37.704 30.563-68.267 68.267-68.267h682.667c37.704 0 68.267 30.563 68.267 68.267v443.733c0 37.704-30.563 68.267-68.267 68.267v0zM512 311.467c-7.199 0-14.418 2.284-20.483 6.833l-273.067 204.8c-15.084 11.302-18.132 32.7-6.816 47.783 11.332 15.032 32.683 18.166 47.783 6.816l252.583-189.433 252.6 189.433c15.066 11.383 36.468 8.284 47.766-6.816 11.332-15.084 8.267-36.482-6.833-47.783l-273.050-204.8c-6.065-4.55-13.285-6.833-20.483-6.833zM785.067 209.067c-8.735 0-17.466 3.335-24.132 10.001l-108.1 108.083c-13.332 13.315-13.332 34.932 0 48.268s34.932 13.332 48.268 0l108.1-108.083c13.332-13.315 13.332-34.932 0-48.268-6.666-6.666-15.401-10.001-24.132-10.001zM236.851 209.667c-8.735 0-17.466 3.335-24.132 10.001-13.332 13.332-13.332 34.949 0 48.268l108.1 108.083c13.332 13.332 34.932 13.332 48.268 0s13.332-34.949 0-48.268l-108.1-108.083c-6.666-6.666-15.401-10.001-24.132-10.001z" />
<glyph unicode="&#xe910;" glyph-name="ico_meeting" d="M494.933 140.8h-324.267c-37.649 0-68.267 30.635-68.267 68.267v443.733c0 37.632 30.618 68.267 68.267 68.267h34.133c18.848 0 34.133-15.268 34.133-34.133s-15.285-34.133-34.133-34.133h-34.133v-443.733h324.267c18.848 0 34.133-15.268 34.133-34.133s-15.285-34.133-34.133-34.133zM853.333 499.2c-18.865 0-34.133 15.268-34.133 34.133v119.467h-34.133c-18.865 0-34.133 15.268-34.133 34.133s15.268 34.133 34.133 34.133h34.133c37.632 0 68.267-30.635 68.267-68.267v-119.467c0-18.865-15.268-34.133-34.133-34.133zM580.267 652.8h-170.667c-18.848 0-34.133 15.268-34.133 34.133s15.285 34.133 34.133 34.133h170.667c18.865 0 34.133-15.268 34.133-34.133s-15.268-34.133-34.133-34.133zM307.2 601.6c-18.848 0-34.133 15.268-34.133 34.133v102.4c0 18.865 15.285 34.133 34.133 34.133s34.133-15.268 34.133-34.133v-102.4c0-18.865-15.285-34.133-34.133-34.133zM682.667 601.6c-18.865 0-34.133 15.268-34.133 34.133v102.4c0 18.865 15.268 34.133 34.133 34.133s34.133-15.268 34.133-34.133v-102.4c0-18.865-15.268-34.133-34.133-34.133zM768 38.4c-122.334 0-221.867 99.533-221.867 221.867s99.533 221.867 221.867 221.867 221.867-99.533 221.867-221.867-99.533-221.867-221.867-221.867zM768 413.867c-84.698 0-153.6-68.902-153.6-153.6s68.902-153.6 153.6-153.6 153.6 68.902 153.6 153.6-68.902 153.6-153.6 153.6zM853.333 281.6h-64v64h-42.667v-64h-64v-42.667h64v-64h42.667v64h64v42.667zM277.716 457.8c-7.967 0-15.251 2.666-20.767 8.199-13.766 13.766-9.868 38.4 9.049 57.334s43.585 22.801 57.317 9.066c13.766-13.766 9.868-38.4-9.049-57.334-11.315-11.332-24.699-17.268-36.55-17.268zM414.249 457.8c-7.967 0-15.251 2.666-20.767 8.199-13.766 13.766-9.868 38.4 9.049 57.334 18.934 18.934 43.599 22.801 57.317 9.066 13.766-13.766 9.868-38.4-9.049-57.334-11.315-11.332-24.699-17.268-36.55-17.268zM277.716 321.266c-7.967 0-15.251 2.666-20.767 8.199-13.766 13.766-9.868 38.4 9.049 57.334s43.585 22.832 57.317 9.066c13.766-13.766 9.868-38.4-9.049-57.334-11.315-11.332-24.699-17.268-36.55-17.268zM414.249 321.266c-7.967 0-15.251 2.666-20.767 8.199-13.766 13.766-9.868 38.4 9.049 57.334 18.934 18.934 43.599 22.832 57.317 9.066 13.766-13.766 9.868-38.4-9.049-57.334-11.315-11.332-24.699-17.268-36.55-17.268zM550.799 457.8v0c-8.134 0-15.517 2.932-20.801 8.199-13.749 13.766-9.851 38.4 9.066 57.334 18.968 18.934 43.568 22.832 57.334 9.066s9.868-38.4-9.066-57.334c-10.967-10.967-24.3-17.268-36.533-17.268z" />
<glyph unicode="&#xe911;" glyph-name="ico_mobile" d="M648.533 857.6h-273.067c-75.284 0-136.533-61.249-136.533-136.533v-580.267c0-75.284 61.249-136.533 136.533-136.533h273.067c75.284 0 136.533 61.249 136.533 136.533v580.267c0 75.284-61.249 136.533-136.533 136.533zM716.8 140.8c0-37.704-30.563-68.267-68.267-68.267h-102.4c0 4.451-1.034 8.885-2.734 12.984-1.717 4.082-4.099 7.851-7.168 11.25-9.568 9.568-24.917 12.302-37.216 7.182-4.434-1.717-7.851-4.099-11.25-7.182-3.082-3.4-5.468-6.816-7.182-11.25-1.7-4.099-2.717-8.533-2.717-12.984h-102.4c-37.704 0-68.267 30.563-68.267 68.267v580.267c0 37.704 30.563 68.267 68.267 68.267h51.2c0-18.848 15.285-34.133 34.133-34.133h102.4c18.848 0 34.133 15.285 34.133 34.133h51.2c37.704 0 68.267-30.563 68.267-68.267v-580.267zM682.667 644.267c-9.434 0-17.067 7.632-17.067 17.067 0 9.417-7.649 17.067-17.050 17.067h-307.217c-9.434 0-17.067 7.632-17.067 17.067s7.632 17.067 17.067 17.067h307.217c28.218 0 51.183-22.968 51.183-51.2 0-9.434-7.632-17.067-17.067-17.067zM682.667 149.333h-307.2c-28.232 0-51.2 22.968-51.2 51.2 0 9.434 7.632 17.067 17.067 17.067s17.067-7.632 17.067-17.067c0-9.417 7.649-17.067 17.067-17.067h307.2c9.434 0 17.067-7.632 17.067-17.067s-7.632-17.067-17.067-17.067z" />
<glyph unicode="&#xe912;" glyph-name="ico_newsletter" d="M921.6 38.4h-819.2c-18.848 0-34.133 15.268-34.133 34.133v512c0 13.001 7.383 24.866 19.033 30.601 11.633 5.765 25.532 4.366 35.884-3.533l211.367-162.167c14.95-11.465 17.766-32.901 6.301-47.834-11.5-14.967-32.932-17.801-47.865-6.301l-156.45 120.033v-408.668h750.93v408.672l-156.467-120.033c-14.967-11.568-36.4-8.666-47.834 6.301-11.5 14.933-8.666 36.366 6.301 47.834l211.367 162.167c10.301 7.933 24.201 9.301 35.867 3.533 11.667-5.734 19.033-17.599 19.033-30.601v-512c0-18.865-15.268-34.133-34.133-34.133zM802.133 140.8c-8.4 0-16.8 3.065-23.398 9.267l-266.735 251.068-266.735-251.068c-13.718-12.899-35.301-12.302-48.251 1.468-12.933 13.732-12.268 35.335 1.451 48.268l290.137 273.063c13.165 12.332 33.635 12.332 46.8 0l290.133-273.067c13.732-12.933 14.367-34.533 1.468-48.268-6.735-7.134-15.8-10.735-24.866-10.735zM785.067 582.868c-18.865 0-34.133 15.268-34.133 34.133v136.533h-477.867v-136.533c0-18.865-15.285-34.133-34.133-34.133s-34.133 15.268-34.133 34.133v170.667c0 18.865 15.285 34.133 34.133 34.133h546.133c18.865 0 34.133-15.268 34.133-34.133v-170.667c0-18.865-15.268-34.133-34.133-34.133zM682.667 652.8h-341.333c-9.434 0-17.067 7.632-17.067 17.067s7.632 17.067 17.067 17.067h341.333c9.434 0 17.067-7.632 17.067-17.067s-7.632-17.067-17.067-17.067zM682.667 550.4h-341.333c-9.434 0-17.067 7.632-17.067 17.067s7.632 17.067 17.067 17.067h341.333c9.434 0 17.067-7.632 17.067-17.067s-7.632-17.067-17.067-17.067z" />
<glyph unicode="&#xe913;" glyph-name="ico_phone" d="M294.898 11.465c-36.198-0.017-70.468 10.032-101.267 32.468l-13.834 10.499c-44.268 33.751-53.367 97.567-20.333 142.298l101.932 138.049c10.967 14.834 27.068 24.433 45.298 27.034 18.401 2.7 36.366-2.116 51.033-13.315l38.332-29.266c9.667-1.799 56.999 22.968 113.5 99.983 55.433 75.551 64.468 127.601 58.9 136.585-2.567 1.949-19.633 15.015-35.567 27.201-31.833 24.334-37.902 66.734-16.135 96.485l100.366 137.267c16.401 22.432 40.602 36.949 68.134 40.885 27.566 3.901 54.9-3.232 77.001-20.2 6.4-4.932 10.967-8.465 11.933-9.25 138.233-111.968 42.868-369.418-104.332-561.149-107.8-140.401-252.433-255.567-374.968-255.567zM316.331 294.233l-101.932-138.066c-11.032-14.899-8.001-36.185 6.765-47.418l13.199-10.049c92.433-67.267 262.065 54.566 381.334 209.917 128.567 167.4 212.634 387.867 115.234 466.749l-10.267 7.933c-7.4 5.666-16.466 8.018-25.733 6.752-9.168-1.318-17.234-6.134-22.668-13.599l-100.4-137.284c19.668-15.084 38.035-29.184 39.499-30.382 57.767-44.599 13.032-149.265-48.367-232.117-60.935-82.234-147.299-154.935-207.401-112.401l-39.267 29.966z" />
<glyph unicode="&#xe914;" glyph-name="ico_play" d="M512 38.4c-225.867 0-409.6 183.733-409.6 409.6s183.733 409.6 409.6 409.6 409.6-183.733 409.6-409.6-183.733-409.6-409.6-409.6zM512 789.333c-188.201 0-341.333-153.132-341.333-341.333s153.132-341.333 341.333-341.333 341.333 153.132 341.333 341.333-153.132 341.333-341.333 341.333zM375.467 243.2c-6.233 0-12.465 1.7-17.934 5.1-10.066 6.199-16.2 17.2-16.2 29.034v341.333c0 11.834 6.134 22.801 16.166 29.034 10.066 6.233 22.668 6.799 33.201 1.498l341.333-170.366c11.568-5.765 18.9-17.565 18.9-30.502s-7.301-24.767-18.835-30.566l-341.333-170.967c-4.833-2.4-10.066-3.601-15.299-3.601zM409.6 563.466v-230.868l230.868 115.633-230.868 115.234z" />
<glyph unicode="&#xe915;" glyph-name="ico_poi" d="M512-12.8c-10.465 0-20.35 4.799-26.832 13.032-30.433 38.7-297.434 382.935-297.434 550.168 0 178.801 145.466 324.267 324.267 324.267s324.267-145.466 324.267-324.267c0-167.233-267.001-511.468-297.434-550.168-6.482-8.233-16.367-13.032-26.832-13.032zM512 806.4c-141.165 0-256-114.835-256-256 0-109.599 165.618-352.7 256-472.999 90.382 120.3 256 363.401 256 472.999 0 141.165-114.835 256-256 256zM512 371.466c-98.666 0-178.951 80.268-178.951 178.934s80.285 178.934 178.951 178.934 178.951-80.268 178.951-178.934-80.285-178.934-178.951-178.934zM512 661.067c-61.034 0-110.684-49.633-110.684-110.667s49.65-110.667 110.684-110.667 110.684 49.633 110.684 110.667-49.65 110.667-110.684 110.667z" />
<glyph unicode="&#xe916;" glyph-name="ico_teams" d="M521.168 516.267c-18.865 0-34.133 15.285-34.133 34.133s15.268 34.133 34.133 34.133c37.632 0 68.267 30.618 68.267 68.267s-30.635 68.267-68.267 68.267c-23.535 0-45.135-11.916-57.767-31.867-10.1-15.882-31.201-20.651-47.101-10.568-15.933 10.083-20.668 31.167-10.568 47.101 25.235 39.817 68.366 63.601 115.432 63.601 75.302 0 136.533-61.249 136.533-136.533s-61.232-136.533-136.533-136.533zM785.067 516.267c-56.467 0-102.4 45.933-102.4 102.4s45.933 102.4 102.4 102.4 102.4-45.933 102.4-102.4-45.933-102.4-102.4-102.4zM785.067 652.8c-18.835 0-34.133-15.316-34.133-34.133s15.299-34.133 34.133-34.133 34.133 15.316 34.133 34.133-15.299 34.133-34.133 34.133zM511.567 72.533c-90.167 0-170.933 60.334-196.434 146.732-5.332 18.084 5.001 37.065 23.067 42.4 18.234 5.318 37.1-5.018 42.4-23.067 16.998-57.583 70.868-97.799 130.966-97.799 75.302 0 136.533 61.249 136.533 136.533v136.533h-136.533c-18.865 0-34.133 15.285-34.133 34.133s15.268 34.133 34.133 34.133h170.667c18.865 0 34.133-15.285 34.133-34.133v-170.667c0-112.934-91.866-204.8-204.8-204.8zM784.633 140.8c-75.302 0-136.533 61.249-136.533 136.533v170.667c0 18.848 15.268 34.133 34.133 34.133h170.667c37.632 0 68.267-30.618 68.267-68.267v-136.533c0-75.284-61.232-136.533-136.533-136.533zM716.367 413.867v-136.533c0-37.649 30.635-68.267 68.267-68.267s68.267 30.618 68.267 68.267v136.533h-136.533zM375.467 652.8h-238.933c-37.704 0-68.267-30.563-68.267-68.267v-204.8c0-37.704 30.563-68.267 68.267-68.267h238.933c37.704 0 68.267 30.563 68.267 68.267v204.8c0 37.704-30.563 68.267-68.267 68.267zM341.333 550.4h-68.267v-170.667h-34.133v170.667h-68.267v34.133h170.667v-34.133z" />
<glyph unicode="&#xe917;" glyph-name="ico_twitter" d="M785.067 617.37c-20.094-8.919-41.687-14.927-64.352-17.637 23.142 13.858 40.916 35.816 49.265 61.986-21.641-12.834-45.626-22.163-71.158-27.194-20.412 21.777-49.562 35.386-81.783 35.386-72.339 0-125.498-67.492-109.158-137.557-93.092 4.666-175.65 49.265-230.922 117.053-29.355-50.357-15.223-116.234 34.656-149.596-18.34 0.591-35.635 5.622-50.722 14.019-1.229-51.907 35.977-100.465 89.863-111.275-15.77-4.277-33.041-5.28-50.609-1.911 14.244-44.51 55.613-76.892 104.677-77.8-47.104-36.932-106.452-53.429-165.888-46.421 49.585-31.788 108.5-50.336 171.759-50.336 208.032 0 325.564 175.695 318.464 333.278 21.89 15.814 40.892 35.543 55.91 58.003zM750.933 38.4h-477.867c-94.099 0-170.667 76.568-170.667 170.667v477.867c0 94.099 76.568 170.667 170.667 170.667h477.867c94.099 0 170.667-76.568 170.667-170.667v-477.867c0-94.099-76.568-170.667-170.667-170.667zM273.067 789.333c-56.467 0-102.4-45.933-102.4-102.4v-477.867c0-56.467 45.933-102.4 102.4-102.4h477.867c56.467 0 102.4 45.933 102.4 102.4v477.867c0 56.467-45.933 102.4-102.4 102.4h-477.867z" />
<glyph unicode="&#xe918;" glyph-name="ico_website" d="M512 789.333c-207.032 0-375.467-168.434-375.467-375.467s168.434-375.467 375.467-375.467 375.467 168.434 375.467 375.467-168.434 375.467-375.467 375.467zM512.017 713.967c23.313 0 63.724-64.608 80.469-184.9h-160.959c16.749 120.293 57.16 184.9 80.486 184.9zM600.183 413.867c0-19.466-0.724-37.792-1.809-55.467h-172.732c-1.082 17.674-1.809 36-1.809 55.467s0.724 37.792 1.809 55.467h172.732c1.082-17.674 1.809-36 1.809-55.467zM204.8 413.867c0 134.451 86.951 248.716 207.466 290.256-24.061-45.701-40.53-107.609-49.292-175.056h-89.907c-16.5 0-29.867-13.367-29.867-29.867s13.367-29.867 29.867-29.867h84.367c-1.106-18.398-1.867-36.905-1.867-55.467s0.761-37.069 1.867-55.467h-84.367c-16.5 0-29.867-13.367-29.867-29.867s13.367-29.867 29.867-29.867h89.911c8.762-67.447 25.231-129.355 49.289-175.053-120.511 41.54-207.466 155.802-207.466 290.253zM512.017 113.766c-23.327 0-63.737 64.608-80.486 184.9h160.959c-16.749-120.293-57.156-184.9-80.469-184.9zM611.758 123.621c24.054 45.698 40.52 107.602 49.282 175.046h89.894c16.5 0 29.867 13.367 29.867 29.867s-13.367 29.867-29.867 29.867h-84.354c1.106 18.398 1.867 36.905 1.867 55.467s-0.761 37.069-1.867 55.467h84.354c16.5 0 29.867 13.367 29.867 29.867s-13.367 29.867-29.867 29.867h-89.894c-8.762 67.444-25.228 129.348-49.282 175.046 120.501-41.547 207.442-155.802 207.442-290.246s-86.941-248.699-207.442-290.246z" />
<glyph unicode="&#xe919;" glyph-name="ico_yt" d="M512.133 106.633c-99.901 0-199.799 2.133-262.366 6.366-167.868 11.534-180.535 134.199-181.501 334.834 0.932 201.001 13.633 323.666 181.466 335.165 125.201 8.465 399.701 8.465 524.5 0h0.034c167.834-11.534 180.5-134.199 181.466-334.834-0.932-201.001-13.633-323.666-181.466-335.165-62.433-4.233-162.266-6.366-262.134-6.366zM512.133 720.998c-98.734 0-197.468-2.034-257.768-6.134-98.065-6.7-116.801-49.135-117.832-267.032 1.034-217.566 19.767-259.966 117.866-266.701 120.532-8.199 394.967-8.199 515.232 0 98.065 6.7 116.801 49.135 117.832 267.032-1.034 217.566-19.767 259.966-117.866 266.701-60.099 4.099-158.799 6.134-257.468 6.134zM409.6 311.467v273.067l273.067-136.294-273.067-136.772z" />
<glyph unicode="&#xe91a;" glyph-name="icon_eye" d="M511.768 134.799c-164.533 0-334.633 110.1-455.001 294.533-7.4 11.332-7.434 25.965-0.034 37.301 120.334 184.467 290.434 294.567 455.035 294.567 167.601 0 337.934-110.234 455.666-294.833 7.168-11.199 7.168-25.532 0-36.734-117.832-184.6-288.167-294.833-455.666-294.833zM126.467 448c106.568-153.801 249.334-244.934 385.3-244.934 138.633 0 281.699 91.167 386.034 244.934-104.267 153.767-247.334 244.934-386.034 244.934-136.035 0-278.801-91.133-385.3-244.934zM509.167 260.267c-103.499 0-187.733 84.234-187.733 187.733s84.234 187.733 187.733 187.733 187.733-84.234 187.733-187.733-84.234-187.733-187.733-187.733zM509.167 567.467c-65.867 0-119.467-53.6-119.467-119.467s53.6-119.467 119.467-119.467 119.467 53.6 119.467 119.467-53.6 119.467-119.467 119.467z" />
<glyph unicode="&#xe91b;" glyph-name="icon_dt_streaming-platform" d="M740.693 185.173c-10.24 0-17.067 3.413-23.893 10.24-13.653 13.653-13.653 34.133 0 47.787 54.613 54.613 85.333 126.293 85.333 204.8 0 81.92-34.133 160.427-95.573 215.040-13.653 13.653-13.653 34.133-3.413 47.787 13.653 13.653 34.133 13.653 47.787 3.413 75.093-68.267 116.053-163.84 116.053-266.24 0-95.573-37.547-184.32-105.813-252.587-3.413-6.827-10.24-10.24-20.48-10.24zM283.307 185.173c-10.24 0-17.067 3.413-23.893 10.24-68.267 68.267-105.813 157.013-105.813 252.587 0 98.987 40.96 197.973 116.053 266.24 13.653 13.653 34.133 10.24 47.787-3.413s10.24-34.133-3.413-47.787c-61.44-54.613-95.573-133.12-95.573-215.040 0-78.507 30.72-150.187 85.333-204.8 13.653-13.653 13.653-34.133 0-47.787-3.413-6.827-13.653-10.24-20.48-10.24zM174.080 75.947c-10.24 0-17.067 3.413-23.893 10.24-95.573 95.573-150.187 225.28-150.187 361.813 0 139.947 58.027 276.48 160.427 372.053 13.653 13.653 34.133 13.653 47.787 0s13.653-34.133 0-47.787c-88.747-85.333-139.947-201.387-139.947-324.267 0-119.467 47.787-228.693 129.707-314.027 13.653-13.653 13.653-34.133 0-47.787-6.827-6.827-13.653-10.24-23.893-10.24zM849.92 75.947c-10.24 0-17.067 3.413-23.893 10.24-13.653 13.653-13.653 34.133 0 47.787 85.333 85.333 129.707 194.56 129.707 314.027 0 122.88-51.2 238.933-139.947 324.267-13.653 13.653-13.653 34.133 0 47.787s34.133 13.653 47.787 0c102.4-95.573 160.427-232.107 160.427-372.053 0-136.533-54.613-266.24-150.187-361.813-6.827-6.827-13.653-10.24-23.893-10.24zM430.080 236.373c-6.827 0-13.653 3.413-20.48 6.827-17.067 6.827-27.307 23.893-27.307 40.96v324.267c0 17.067 10.24 34.133 27.307 44.373 17.067 6.827 34.133 6.827 51.2-3.413l228.693-163.84c13.653-10.24 20.48-23.893 20.48-37.547s-6.827-30.72-20.48-40.96l-228.693-163.84c-10.24-3.413-20.48-6.827-30.72-6.827zM450.56 570.88v-245.76l174.080 122.88-174.080 122.88z" />
</font>
</defs>
</svg>
